<svg xmlns="http://www.w3.org/2000/svg" viewBox="0 0 1280 720" role="img" aria-labelledby="title desc">
  <title id="title">Social robot with articulated arms and hands</title>
  <desc id="desc">A simple white line drawing of a compact social robot with a round head, upper body, shoulder joints, articulated arms, and hands.</desc>
  <rect width="1280" height="720" fill="#080808"/>

  <g fill="#f4f4f4" stroke="#080808" stroke-width="9" stroke-linecap="round" stroke-linejoin="round">
    <!-- Head and symmetric side modules -->
    <circle cx="640" cy="176" r="119"/>
    <ellipse cx="528" cy="184" rx="35" ry="58"/>
    <ellipse cx="752" cy="184" rx="35" ry="58"/>

    <!-- Torso -->
    <path d="M518 326c0-20 16-36 36-36h172c20 0 36 16 36 36v238c0 27-22 49-49 49H567c-27 0-49-22-49-49Z"/>
    <path d="M518 384h244" fill="none" stroke-width="6" opacity=".55"/>

    <!-- Shoulder joints -->
    <circle cx="505" cy="357" r="46"/>
    <circle cx="775" cy="357" r="46"/>

    <!-- Left articulated arm, bent toward the front -->
    <path d="M474 382c-28 36-46 73-53 112-5 25 12 49 37 54 25 5 49-12 54-37 5-27 18-54 38-80Z"/>
    <circle cx="457" cy="520" r="36"/>
    <path d="M474 539c18 13 39 25 62 36 22 10 48 0 58-22 10-22 0-48-22-58-17-8-33-17-47-27Z"/>

    <!-- Right articulated arm, bent toward the front -->
    <path d="M806 382c28 36 46 73 53 112 5 25-12 49-37 54-25 5-49-12-54-37-5-27-18-54-38-80Z"/>
    <circle cx="823" cy="520" r="36"/>
    <path d="M806 539c-18 13-39 25-62 36-22 10-48 0-58-22-10-22 0-48 22-58 17-8 33-17 47-27Z"/>

    <!-- Clearly articulated hands -->
    <path d="M525 501c8-9 22-10 31-2l18 16 9-13c7-10 21-12 31-5 10 7 12 21 5 31l-30 43c-13 18-39 22-57 9l-12-9c-19-14-23-41-8-59Z"/>
    <path d="M755 501c-8-9-22-10-31-2l-18 16-9-13c-7-10-21-12-31-5-10 7-12 21-5 31l30 43c13 18 39 22 57 9l12-9c19-14 23-41 8-59Z"/>
  </g>

  <!-- Face -->
  <g fill="#080808">
    <circle cx="608" cy="174" r="12"/>
    <circle cx="678" cy="174" r="12"/>
  </g>
  <path d="M613 221c17 10 38 10 55 0" fill="none" stroke="#080808" stroke-width="8" stroke-linecap="round"/>

  <!-- Restrained blue construction accent -->
  <g fill="none" stroke="#5b9bff" stroke-width="6" stroke-linecap="round">
    <path d="M583 327h114"/>
  </g>

  <!-- Finger-joint divisions -->
  <g fill="none" stroke="#080808" stroke-width="5" stroke-linecap="round">
    <path d="M536 518l19 18M555 515l19 18M744 518l-19 18M725 515l-19 18"/>
    <path d="M540 558c12 6 24 8 36 8M740 558c-12 6-24 8-36 8"/>
  </g>
</svg>
