<svg xmlns="http://www.w3.org/2000/svg" viewBox="0 0 1280 720" role="img" aria-labelledby="title desc">
  <title id="title">Survey task flow</title>
  <desc id="desc">Four connected pictograms show intent selection, relationship and context, touch convention, and body map marking.</desc>
  <rect width="1280" height="720" fill="#080808"/>
  <g fill="none" stroke="#3f72bf" stroke-width="8" stroke-linecap="round">
    <path d="M285 360h95M590 360h95M895 360h95"/>
    <path d="m362 342 18 18-18 18M667 342l18 18-18 18M972 342l18 18-18 18"/>
  </g>
  <g fill="#111" stroke="#f2f2f2" stroke-width="7" stroke-linecap="round" stroke-linejoin="round">
    <rect x="70" y="224" width="215" height="272" rx="26"/>
    <rect x="94" y="251" width="72" height="72" rx="12"/>
    <rect x="188" y="251" width="72" height="72" rx="12"/>
    <rect x="94" y="345" width="72" height="72" rx="12"/>
    <rect x="188" y="345" width="72" height="72" rx="12"/>
    <path d="m111 282 15 15 25-30"/>
    <circle cx="482" cy="332" r="78"/>
    <circle cx="538" cy="332" r="78"/>
    <rect x="420" y="430" width="180" height="42" rx="12"/>
    <rect x="700" y="230" width="180" height="260" rx="24"/>
    <path d="M744 290h92M744 342h92M744 394h92"/>
    <circle cx="724" cy="290" r="8" fill="#5b9bff" stroke="none"/>
    <circle cx="724" cy="342" r="8" fill="#5b9bff" stroke="none"/>
    <circle cx="724" cy="394" r="8" fill="#5b9bff" stroke="none"/>
    <circle cx="1120" cy="275" r="48"/>
    <path d="M1065 370c0-48 25-78 55-78s55 30 55 78v82h-110Z"/>
    <path d="M1066 333 1020 405M1174 333l46 72M1096 450l-20 104M1144 450l20 104"/>
  </g>
  <g fill="#5b9bff">
    <circle cx="1100" cy="352" r="13"/>
    <circle cx="1142" cy="389" r="13"/>
    <circle cx="1089" cy="437" r="13"/>
  </g>
</svg>
