<svg width="1031" height="1380" viewBox="0 0 1031 1380" fill="none" xmlns="http://www.w3.org/2000/svg">
<rect width="1031" height="1380" fill="#F5F5F5"/>
<g id="female_bodymap">
<g id="body_shape">
<path id="Vector 20" d="M139.818 350C141.151 353.5 143.318 363.3 143.318 364.5" stroke="black" stroke-width="3"/>
<path id="Vector 21" d="M338.318 350C336.985 353.5 334.818 363.3 334.818 364.5" stroke="black" stroke-width="3"/>
<path id="Vector 14" d="M128.818 607C150.318 613.667 202.318 627 238.318 627C274.318 627 325.985 613.667 347.318 607" stroke="black" stroke-width="3"/>
<path id="Vector 15" d="M120.318 649C125.818 648.5 139.218 648.5 148.818 652.5C160.818 657.5 170.818 661.5 181.818 669C192.818 676.5 227.318 715 231.318 716.5C235.318 718 239.818 718 242.318 716.5C255.818 701.833 285.725 673.556 293.318 669C297.318 666.6 310.818 656 323.318 652.5C333.318 649.7 349.151 649 355.818 649" stroke="black" stroke-width="3"/>
<path id="Vector 13" d="M156.318 440C173.151 437.167 213.618 431.6 240.818 432C268.018 432.4 306.485 437.5 322.318 440" stroke="black" stroke-width="3"/>
<path id="Vector 12" d="M172.318 258.5C171.651 289.333 184.118 351 239.318 351C294.518 351 306.651 289.333 305.818 258.5" stroke="black" stroke-width="3"/>
<path id="Vector 10" d="M155.818 264C155.984 283.667 155.818 321.5 154.318 329C153.077 335.202 146.193 355.5 141.818 369.5C139.318 377.5 142.318 404.5 148.318 410.5C154.318 416.5 166.318 426 179.818 426C190.618 426 199.318 423.5 202.318 422" stroke="black" stroke-width="3"/>
<path id="Vector 11" d="M322.318 264C322.151 283.667 322.318 321.5 323.818 329C325.058 335.202 331.943 355.5 336.318 369.5C338.818 377.5 335.818 404.5 329.818 410.5C323.818 416.5 311.818 426 298.318 426C287.518 426 278.818 423.5 275.818 422" stroke="black" stroke-width="3"/>
<path id="Vector 8" d="M148.818 410.5C157.818 461 163.875 484 161.818 508C159.461 535.5 138.818 563.5 129.818 597.5C120.818 631.5 111.818 693 112.818 716C113.818 739 122.818 805.5 129.818 833.5C136.818 861.5 153.318 936.5 154.818 953C156.318 969.5 154.318 1008.5 153.318 1018C152.318 1027.5 149.818 1065 150.318 1078.5C150.818 1092 151.818 1107 152.818 1118C153.818 1129 183.318 1235.5 184.318 1252C185.318 1268.5 184.318 1283.5 184.318 1289.5C184.318 1295.5 185.818 1301.5 185.818 1304C185.818 1306.5 179.318 1324.5 173.818 1331C168.318 1337.5 156.318 1350.98 156.318 1358C156.318 1364 158.818 1365.5 161.818 1367.5C164.218 1369.1 166.818 1368.17 167.818 1367.5M167.818 1367.5C167.318 1366.33 166.618 1363.4 167.818 1361C169.018 1358.6 170.984 1358 171.818 1358M183.318 1358C182.151 1359 179.718 1361.6 179.318 1364C178.818 1367 179.318 1369 180.318 1371.5C180.58 1372.16 174.318 1372.5 172.318 1371.5C170.718 1370.7 168.651 1368.5 167.818 1367.5M180.318 1371.5C181.151 1372.5 183.618 1374.5 186.818 1374.5C190.018 1374.5 192.484 1373.83 193.318 1373.5M193.318 1373.5C192.818 1372 192.318 1369 192.318 1366C192.318 1363.6 194.984 1360.67 196.318 1359.5M193.318 1373.5C194.818 1374.67 198.318 1377 200.318 1377C202.318 1377 207.151 1376.33 209.318 1376M209.318 1376C208.484 1374.5 206.918 1370.7 207.318 1367.5C207.718 1364.3 210.818 1359.83 212.318 1358M209.318 1376C210.651 1376.67 214.118 1378 217.318 1378C221.318 1378 224.318 1377.5 226.318 1376C228.318 1374.5 230.969 1370.9 231.818 1367.5C232.818 1363.5 233.318 1359 233.318 1354.5C233.318 1350 229.818 1327.52 229.818 1319.5C229.818 1312 229.818 1307.5 229.818 1302C229.818 1296.5 229.818 1287 229.818 1283.5C229.818 1280 228.818 1280 226.318 1266C223.818 1252 226.318 1170 226.318 1155.5C226.318 1141 229.818 1110.5 229.818 1097C229.818 1083.5 222.818 1049.5 221.818 1026.5C220.818 1003.5 229.818 971 229.818 958.5C229.818 946 226.318 902.5 226.318 882C226.318 861.5 231.318 788 231.318 781.5C231.318 765 232.651 734.333 231.318 716" stroke="black" stroke-width="3"/>
<path id="Vector 9" d="M328.818 412C319.818 462.5 314.261 484 316.318 508C318.675 535.5 338.318 566.5 347.318 600.5C356.318 634.5 360.318 693 359.318 716C358.318 739 349.318 805.5 342.318 833.5C335.318 861.5 318.818 936.5 317.318 953C315.818 969.5 317.818 1008.5 318.818 1018C319.818 1027.5 322.318 1065 321.818 1078.5C321.318 1092 320.318 1107 319.318 1118C318.318 1129 288.818 1235.5 287.818 1252C286.818 1268.5 287.818 1283.5 287.818 1289.5C287.818 1295.5 286.318 1301.5 286.318 1304C286.318 1306.5 292.818 1324.5 298.318 1331C303.818 1337.5 315.818 1350.98 315.818 1358C315.818 1364 313.318 1365.5 310.318 1367.5C307.918 1369.1 305.318 1368.17 304.318 1367.5M304.318 1367.5C304.818 1366.33 305.518 1363.4 304.318 1361C303.118 1358.6 301.151 1358 300.318 1358M288.818 1358C289.984 1359 292.418 1361.6 292.818 1364C293.318 1367 292.818 1369 291.818 1371.5C291.555 1372.16 297.818 1372.5 299.818 1371.5C301.418 1370.7 303.484 1368.5 304.318 1367.5M291.818 1371.5C290.984 1372.5 288.518 1374.5 285.318 1374.5C282.118 1374.5 279.651 1373.83 278.818 1373.5M278.818 1373.5C279.318 1372 279.818 1369 279.818 1366C279.818 1363.6 277.151 1360.67 275.818 1359.5M278.818 1373.5C277.318 1374.67 273.818 1377 271.818 1377C269.818 1377 264.984 1376.33 262.818 1376M262.818 1376C263.651 1374.5 265.218 1370.7 264.818 1367.5C264.418 1364.3 261.318 1359.83 259.818 1358M262.818 1376C261.484 1376.67 258.018 1378 254.818 1378C250.818 1378 247.818 1377.5 245.818 1376C243.818 1374.5 241.167 1370.9 240.318 1367.5C239.318 1363.5 238.818 1359 238.818 1354.5C238.818 1350 242.318 1327.52 242.318 1319.5C242.318 1312 242.318 1307.5 242.318 1302C242.318 1296.5 242.318 1287 242.318 1283.5C242.318 1280 243.318 1280 245.818 1266C248.318 1252 245.818 1170 245.818 1155.5C245.818 1141 242.318 1110.5 242.318 1097C242.318 1083.5 249.318 1049.5 250.318 1026.5C251.318 1003.5 242.318 971 242.318 958.5C242.318 946 245.818 902.5 245.818 882C245.818 861.5 240.818 788 240.818 781.5C240.818 765 239.484 734.333 240.818 716" stroke="black" stroke-width="3"/>
<path id="Vector 6" d="M102.579 295.5C105.781 287.258 110.443 282.771 115.818 276.5C124.818 266 154.318 263.5 165.818 261C175.018 259 197.651 244.833 207.818 238" stroke="black" stroke-width="3"/>
<path id="Vector 6_2" d="M207.818 200V238" stroke="black" stroke-width="3"/>
<path id="Vector 6_3" d="M145.818 407C141.318 432 132.018 484.4 130.818 494C129.318 506 128.818 522.5 128.318 528C127.818 533.5 80.8178 673.5 81.3178 675C81.8178 676.5 83.8178 703.5 82.8178 712C81.8178 720.5 63.8178 772.5 63.3178 774.5C62.8178 776.5 58.3178 777.5 57.3178 777C56.3178 776.5 55.3178 776.5 54.3178 774C53.5178 772 58.9845 750.167 61.8178 739.5C58.3178 752.333 51.0178 779.2 49.8178 784C48.3178 790 44.3178 788.5 43.3178 788.5C42.3178 788.5 41.3178 787 40.3178 786C39.5178 785.2 45.6511 754.667 48.8178 739.5C45.4845 754.333 38.6178 784.6 37.8178 787C36.8178 790 33.8178 792 30.3178 791C26.8178 790 27.3178 786 26.3178 785C25.5178 784.2 31.9845 752.667 35.3178 737C32.6511 749.333 27.1178 774.9 26.3178 778.5C25.3178 783 21.3178 784.5 19.3178 784C17.3178 783.5 15.3178 784 15.3178 776.5C15.3178 770.5 22.6511 731 26.3178 712C23.6511 718.833 17.7178 733.1 15.3178 735.5C12.3178 738.5 -0.682177 736 1.81782 732.5C4.31782 729 5.81782 722.5 9.81782 716C13.8178 709.5 15.8178 696.5 21.3178 687.5C25.7178 680.3 40.1512 671.5 46.8178 668C49.3178 658.833 54.9178 636.8 57.3178 622C60.3178 603.5 64.8178 546 67.8178 531C70.2178 519 80.8178 493.333 85.8178 482C86.6512 466.833 88.7178 433.1 90.3178 419.5C92.3178 402.5 93.8178 380.5 96.3178 369C98.8178 357.5 96.8178 345.5 98.3178 319C98.922 308.326 100.419 301.059 102.579 295.5" stroke="black" stroke-width="3"/>
<path id="Vector 131" d="M188.5 57C195 58.8333 213.3 62.5 234.5 62.5C255.7 62.5 279.667 58.8333 289 57" stroke="black" stroke-width="2" stroke-dasharray="5 5"/>
<path id="Vector 7" d="M378.432 296.5C375.223 287.612 370.406 283.02 364.818 276.5C355.818 266 326.318 263.5 314.818 261C305.618 259 282.985 244.833 272.818 238" stroke="black" stroke-width="3"/>
<path id="Vector 7_2" d="M272.818 200V238" stroke="black" stroke-width="3"/>
<path id="Vector 7_3" d="M333.818 403.5C338.318 428.5 348.618 484.4 349.818 494C351.318 506 351.818 522.5 352.318 528C352.818 533.5 399.818 673.5 399.318 675C398.818 676.5 396.818 703.5 397.818 712C398.818 720.5 416.818 772.5 417.318 774.5C417.818 776.5 422.318 777.5 423.318 777C424.318 776.5 425.318 776.5 426.318 774C427.118 772 421.651 750.167 418.818 739.5C422.318 752.333 429.618 779.2 430.818 784C432.318 790 436.318 788.5 437.318 788.5C438.318 788.5 439.318 787 440.318 786C441.118 785.2 434.985 754.667 431.818 739.5C435.151 754.333 442.018 784.6 442.818 787C443.818 790 446.818 792 450.318 791C453.818 790 453.318 786 454.318 785C455.118 784.2 448.651 752.667 445.318 737C447.985 749.333 453.518 774.9 454.318 778.5C455.318 783 459.318 784.5 461.318 784C463.318 783.5 465.318 784 465.318 776.5C465.318 770.5 457.985 731 454.318 712C456.985 718.833 462.918 733.1 465.318 735.5C468.318 738.5 481.318 736 478.818 732.5C476.318 729 474.818 722.5 470.818 716C466.818 709.5 464.818 696.5 459.318 687.5C454.918 680.3 440.485 671.5 433.818 668C431.318 658.833 425.718 636.8 423.318 622C420.318 603.5 415.818 546 412.818 531C410.418 519 399.818 493.333 394.818 482C393.985 466.833 391.918 433.1 390.318 419.5C388.318 402.5 386.818 380.5 384.318 369C381.818 357.5 383.818 345.5 382.318 319C381.749 308.954 380.39 301.926 378.432 296.5" stroke="black" stroke-width="3"/>
<path id="Vector 4" d="M179.818 129C179.151 128 176.918 126.3 173.318 127.5C168.818 129 170.318 140.5 170.818 144C171.318 147.5 178.318 164 181.818 166.5C184.618 168.5 186.984 167.333 187.818 166.5" stroke="black" stroke-width="3"/>
<path id="Vector 5" d="M297.818 130.913C298.485 129.913 300.718 128.213 304.318 129.413C308.818 130.913 307.318 142.413 306.818 145.913C306.318 149.413 299.318 165.913 295.818 168.413C293.018 170.413 290.651 169.246 289.818 168.413" stroke="black" stroke-width="3"/>
<path id="Vector 3" d="M183.818 139.5C184.485 117.5 191.465 69.715 212.818 73C232.318 76 230.318 79.5 238.818 79.5C244.818 77.1667 258.018 73 266.818 73C283.318 73 294.818 119.5 294.818 139.5" stroke="black" stroke-width="3"/>
<path id="Vector 2" d="M200.318 44C199.318 31 205.418 5 237.818 5C278.318 5 278.818 33.5 277.818 44" stroke="black" stroke-width="3"/>
<path id="Vector 1" d="M239.318 34C171.318 34 172.318 97.6667 181.318 129.5C182.985 143.167 188.118 173.3 195.318 184.5C204.318 198.5 222.318 220.5 239.318 219.5C256.318 218.5 272.159 200.5 282.818 184.5C289.813 174 294.651 146.5 298.318 129.5C306.985 97.6667 307.318 34 239.318 34Z" stroke="black" stroke-width="3"/>
<path id="Ellipse 1" d="M237.318 557.5C238.054 557.5 238.792 557.97 239.371 558.879C239.946 559.782 240.318 561.062 240.318 562.5C240.318 563.938 239.946 565.218 239.371 566.121C238.792 567.03 238.054 567.5 237.318 567.5C236.582 567.5 235.844 567.03 235.265 566.121C234.69 565.218 234.318 563.938 234.318 562.5C234.318 561.062 234.69 559.782 235.265 558.879C235.844 557.97 236.582 557.5 237.318 557.5Z" stroke="black"/>
<path id="Vector 16" d="M172.318 974C172.318 982.5 177.318 988.5 180.818 992.5" stroke="black"/>
<path id="Vector 17" d="M209.318 974C209.318 982.5 204.318 988.5 200.818 992.5" stroke="black"/>
<path id="Vector 18" d="M261.818 974C261.818 982.5 266.818 988.5 270.318 992.5" stroke="black"/>
<path id="Vector 19" d="M298.818 974C298.818 982.5 293.818 988.5 290.318 992.5" stroke="black"/>
<path id="Vector 32" d="M739.5 1325.5C738.891 1324.8 737.996 1323.42 737.216 1321.5C736.326 1319.31 735.585 1316.41 735.585 1313C735.585 1307 735.085 1268.5 734.085 1252C733.085 1235.5 703.585 1129 702.585 1118C701.585 1107 700.585 1092 700.085 1078.5C699.585 1065 702.085 1027.5 703.085 1018C704.085 1008.5 706.085 969.5 704.585 953C703.085 936.5 686.585 861.5 679.585 833.5C672.585 805.5 663.585 739 662.585 716C661.585 693 669.585 634.5 678.585 600.5C687.585 566.5 707.228 535.5 709.585 508C711.642 484 693.403 406 684.403 355.5M779.585 730C780.919 748.333 781.085 765 781.085 781.5C781.085 788 776.085 861.5 776.085 882C776.085 902.5 779.585 946 779.585 958.5C779.585 971 770.585 1003.5 771.585 1026.5C772.585 1049.5 779.585 1083.5 779.585 1097C779.585 1110.5 776.085 1141 776.085 1155.5C776.085 1170 775.403 1269.5 775.403 1269.5C775.403 1269.5 775.903 1278.9 777.903 1286.5C780.403 1296 781.903 1294 782.403 1300.5C782.803 1305.7 780.903 1317.67 779.903 1323C782.069 1331.67 786.403 1350.8 786.403 1358C786.403 1367 783.72 1371.5 779.903 1375C776.085 1378.5 763.403 1379 759.403 1378C755.403 1377 740.768 1371 735.585 1370C730.403 1369 719.403 1369.5 714.903 1367.5C711.303 1365.9 706.085 1363.06 706.085 1358C706.085 1346.5 719 1344 726.903 1335.5L737.216 1321.5" stroke="black" stroke-width="3"/>
<path id="Vector 33" d="M774.403 1269.5C774.403 1278.5 774.553 1295.4 774.903 1301C775.403 1309 778.167 1320.17 779.5 1325" stroke="black"/>
<path id="Vector 34" d="M836.403 1325C837.012 1324.3 837.907 1322.92 838.687 1321C839.577 1318.81 840.318 1315.91 840.318 1312.5C840.318 1306.5 840.818 1268 841.818 1251.5C842.818 1235 872.318 1128.5 873.318 1117.5C874.318 1106.5 875.318 1091.5 875.818 1078C876.318 1064.5 873.818 1027 872.818 1017.5C871.818 1008 869.818 969 871.318 952.5C872.818 936 889.318 861 896.318 833C903.318 805 912.318 738.5 913.318 715.5C914.318 692.5 906.318 634 897.318 600C888.318 566 868.675 535 866.318 507.5C864.261 483.5 882.5 405.5 891.5 355M796.318 729.5C794.984 747.833 794.818 764.5 794.818 781C794.818 787.5 799.818 861 799.818 881.5C799.818 902 796.318 945.5 796.318 958C796.318 970.5 805.318 1003 804.318 1026C803.318 1049 796.318 1083 796.318 1096.5C796.318 1110 799.818 1140.5 799.818 1155C799.818 1169.5 800.5 1269 800.5 1269C800.5 1269 800 1278.4 798 1286C795.5 1295.5 794 1293.5 793.5 1300C793.1 1305.2 795 1317.17 796 1322.5C793.834 1331.17 789.5 1350.3 789.5 1357.5C789.5 1366.5 792.183 1371 796 1374.5C799.818 1378 812.5 1378.5 816.5 1377.5C820.5 1376.5 835.135 1370.5 840.318 1369.5C845.5 1368.5 856.5 1369 861 1367C864.6 1365.4 869.818 1362.56 869.818 1357.5C869.818 1346 856.903 1343.5 849 1335L838.687 1321" stroke="black" stroke-width="3"/>
<path id="Vector 35" d="M801.5 1269C801.5 1278 801.35 1294.9 801 1300.5C800.5 1308.5 797.736 1319.67 796.403 1324.5" stroke="black"/>
<path id="Vector 6_4" d="M757.818 186V238C747.651 244.833 725.018 259 715.818 261C704.318 263.5 674.818 266 665.818 276.5C656.818 287 649.818 292.5 648.318 319C646.818 345.5 648.818 357.5 646.318 369C643.818 380.5 642.318 402.5 640.318 419.5C638.718 433.1 636.651 466.833 635.818 482C630.818 493.333 620.218 519 617.818 531C614.818 546 610.318 603.5 607.318 622C604.918 636.8 599.318 658.833 596.818 668C590.151 671.5 575.718 680.3 571.318 687.5C565.818 696.5 563.818 709.5 559.818 716C555.818 722.5 554.318 729 551.818 732.5C549.318 736 562.318 738.5 565.318 735.5C567.718 733.1 573.651 718.833 576.318 712C572.651 731 565.318 770.5 565.318 776.5C565.318 784 567.318 783.5 569.318 784C571.318 784.5 575.318 783 576.318 778.5C577.118 774.9 582.651 749.333 585.318 737C581.984 752.667 575.518 784.2 576.318 785C577.318 786 576.818 790 580.318 791C583.818 792 586.818 790 587.818 787C588.618 784.6 595.484 754.333 598.818 739.5C595.651 754.667 589.518 785.2 590.318 786C591.318 787 592.318 788.5 593.318 788.5C594.318 788.5 598.318 790 599.818 784C601.018 779.2 608.318 752.333 611.818 739.5C608.984 750.167 603.518 772 604.318 774C605.318 776.5 606.318 776.5 607.318 777C608.318 777.5 612.818 776.5 613.318 774.5C613.818 772.5 631.818 720.5 632.818 712C633.818 703.5 631.818 676.5 631.318 675C630.818 673.5 677.818 533.5 678.318 528C678.818 522.5 679.318 506 680.818 494C682.018 484.4 692.318 428 696.818 403" stroke="black" stroke-width="3"/>
<path id="Vector 7_4" d="M822.818 184V238C832.985 244.833 855.618 259 864.818 261C876.318 263.5 905.818 266 914.818 276.5C923.818 287 930.818 292.5 932.318 319C933.818 345.5 931.818 357.5 934.318 369C936.818 380.5 938.318 402.5 940.318 419.5C941.918 433.1 943.985 466.833 944.818 482C949.818 493.333 960.418 519 962.818 531C965.818 546 970.318 603.5 973.318 622C975.718 636.8 981.318 658.833 983.818 668C990.485 671.5 1004.92 680.3 1009.32 687.5C1014.82 696.5 1016.82 709.5 1020.82 716C1024.82 722.5 1026.32 729 1028.82 732.5C1031.32 736 1018.32 738.5 1015.32 735.5C1012.92 733.1 1006.98 718.833 1004.32 712C1007.98 731 1015.32 770.5 1015.32 776.5C1015.32 784 1013.32 783.5 1011.32 784C1009.32 784.5 1005.32 783 1004.32 778.5C1003.52 774.9 997.985 749.333 995.318 737C998.651 752.667 1005.12 784.2 1004.32 785C1003.32 786 1003.82 790 1000.32 791C996.818 792 993.818 790 992.818 787C992.018 784.6 985.151 754.333 981.818 739.5C984.985 754.667 991.118 785.2 990.318 786C989.318 787 988.318 788.5 987.318 788.5C986.318 788.5 982.318 790 980.818 784C979.618 779.2 972.318 752.333 968.818 739.5C971.651 750.167 977.118 772 976.318 774C975.318 776.5 974.318 776.5 973.318 777C972.318 777.5 967.818 776.5 967.318 774.5C966.818 772.5 948.818 720.5 947.818 712C946.818 703.5 948.818 676.5 949.318 675C949.818 673.5 902.818 533.5 902.318 528C901.818 522.5 901.318 506 899.818 494C898.618 484.4 887.318 425.5 882.818 400.5" stroke="black" stroke-width="3"/>
<path id="Vector 4_2" d="M729.818 119C729.151 118 726.918 116.3 723.318 117.5C718.818 119 720.318 130.5 720.818 134C721.318 137.5 728.318 154 731.818 156.5C734.618 158.5 736.984 157.333 737.818 156.5" stroke="black" stroke-width="3"/>
<path id="Vector 5_2" d="M848.818 120.913C849.485 119.913 851.718 118.213 855.318 119.413C859.818 120.913 858.318 132.413 857.818 135.913C857.318 139.413 850.318 155.913 846.818 158.413C844.018 160.413 841.651 159.246 840.818 158.413" stroke="black" stroke-width="3"/>
<path id="Vector 1_2" d="M730.864 118.75C724.414 98.1325 721.052 62.8153 745 44.241M848.462 118.75C854.673 98.1325 857.626 62.8153 833.462 44.241M737 153.324C741.5 174 762.514 197.574 789.16 197.995C816.311 198.425 838.5 173.5 843 153.324" stroke="black" stroke-width="3" stroke-linecap="square"/>
<path id="Vector 22" d="M823.5 189.5C827 187 829.5 184.5 831.5 181.5C833.5 178.5 840.334 162 841.5 159" stroke="black" stroke-width="3"/>
<path id="Vector 23" d="M757.5 192.5C754 190 751.5 187.5 749.5 184.5C747.5 181.5 738.667 159 737.5 156" stroke="black" stroke-width="3"/>
<path id="Ellipse 2" d="M789.5 1.5C813.659 1.5 833 19.3131 833 41C833 62.6869 813.659 80.5 789.5 80.5C765.342 80.5 746 62.6869 746 41C746 19.3131 765.342 1.5 789.5 1.5Z" stroke="black" stroke-width="3"/>
<path id="Vector 24" d="M704.5 442H875" stroke="black" stroke-width="3"/>
<path id="Vector 25" d="M731.5 254C739.167 265.5 761.8 288.5 791 288.5C820.2 288.5 839.834 265.5 846 254M711 263C721.167 278.333 737.431 318.134 739.5 334C742.5 357 735 380.5 721 393C709.8 403 700.667 403.833 697.5 403M868.5 263C858.834 277.333 839.4 311.6 839 334C838.5 362 846 383 860.5 393C872.1 401 880 403 882.5 403" stroke="black" stroke-width="3"/>
<path id="Vector 26" d="M789.5 480.5V561" stroke="black"/>
<path id="Vector 27" d="M675.5 617.5C697.334 614.833 751.1 609.5 791.5 609.5C831.9 609.5 881.334 614.833 901 617.5" stroke="black" stroke-width="3"/>
<path id="Vector 28" d="M725.5 977C728 975.167 733.6 972.5 740 972.5C746.4 972.5 752.667 975.167 754.5 977" stroke="black"/>
<path id="Vector 29" d="M820.5 977C823 975.167 828.6 972.5 835 972.5C841.4 972.5 847.667 975.167 849.5 977" stroke="black"/>
<path id="Vector 30" d="M666.5 663.5C671.834 675.5 690.1 703 712.5 717C740.5 734.5 754.5 736.5 763.5 736.5C772.5 736.5 778 734 781.5 731.5C785.433 728.691 788.334 725.667 789 724M789 724V704.5M789 724C790.334 726.167 793.917 729.912 798 732.5C806.515 737.896 816.497 737.203 823 737C839 736.5 859.5 723.5 867 717C874.5 710.5 909.5 667.5 909.5 667.5" stroke="black" stroke-width="3"/>
<path id="Vector 37" d="M207.818 238C207.99 238.072 208.169 238.146 208.354 238.223M272.716 238.046C272.75 238.031 272.784 238.015 272.818 238" stroke="black" stroke-width="2" stroke-dasharray="5 5"/>
<path id="Vector 53" d="M754.5 239C760.5 241.5 775.8 246.5 789 246.5C802.2 246.5 816.5 241.5 822 239" stroke="black" stroke-width="2" stroke-dasharray="5 5"/>
<path id="Vector 132" d="M207 239C213 241.5 226.8 246.5 240 246.5C253.2 246.5 267.5 241.5 273 239" stroke="black" stroke-width="2" stroke-dasharray="5 5"/>
<path id="Vector 38" d="M102.579 295.5C129.579 300.167 200.9 307 244.5 307C288.1 307 350.432 301.167 378.432 296.5" stroke="black" stroke-width="2" stroke-dasharray="5 5"/>
<path id="Vector 54" d="M652.5 296C679.5 300.667 748.9 307 792.5 307C836.1 307 898.5 300.667 926.5 296" stroke="black" stroke-width="2" stroke-dasharray="5 5"/>
<path id="Vector 39" d="M98.5005 319.5C108 320.833 128.2 325.1 133 331.5C137.8 337.9 140 347.5 140.5 351.5" stroke="black" stroke-width="2" stroke-dasharray="5 5"/>
<path id="Vector 40" d="M379.5 319.5C370 320.833 349.8 325.1 345 331.5C340.2 337.9 338 347.5 337.5 351.5" stroke="black" stroke-width="2" stroke-dasharray="5 5"/>
<path id="Vector 41" d="M85.0005 488.5C95.0005 500.5 117.5 524.9 127.5 526.5" stroke="black" stroke-width="2" stroke-dasharray="5 5"/>
<path id="Vector 42" d="M395 487C385 499 362.5 523.4 352.5 525" stroke="black" stroke-width="2" stroke-dasharray="5 5"/>
<path id="Vector 43" d="M47.5005 667C50.3338 671.333 61.3005 679.1 82.5005 675.5" stroke="black" stroke-width="2" stroke-dasharray="5 5"/>
<path id="Vector 55" d="M597.5 667C600.334 671.333 611.3 679.1 632.5 675.5" stroke="black" stroke-width="2" stroke-dasharray="5 5"/>
<path id="Vector 44" d="M434.5 667C431.667 671.333 420.7 679.1 399.5 675.5" stroke="black" stroke-width="2" stroke-dasharray="5 5"/>
<path id="Vector 56" d="M983.5 667C980.667 671.333 969.7 679.1 948.5 675.5" stroke="black" stroke-width="2" stroke-dasharray="5 5"/>
<path id="Vector 45" d="M15.0005 710.5C44.5005 710.5 66.0005 721.5 77.0005 735" stroke="black" stroke-width="2" stroke-dasharray="5 5"/>
<path id="Vector 46" d="M465.5 710.5C436 710.5 414.5 721.5 403.5 735" stroke="black" stroke-width="2" stroke-dasharray="5 5"/>
<path id="Vector 47" d="M155 940.5C166.334 933.667 196.9 924.1 228.5 940.5" stroke="black" stroke-width="2" stroke-dasharray="5 5"/>
<path id="Vector 48" d="M318 940.5C306.667 933.667 276.1 924.1 244.5 940.5" stroke="black" stroke-width="2" stroke-dasharray="5 5"/>
<path id="Vector 49" d="M154.5 1011C170.5 1017.17 206.6 1025.8 223 1011" stroke="black" stroke-width="2" stroke-dasharray="5 5"/>
<path id="Vector 57" d="M706.5 1000C721.683 1006.04 745 1008 771.5 1000" stroke="black" stroke-width="2" stroke-dasharray="5 5"/>
<path id="Vector 58" d="M869.5 1000C854.318 1006.04 831 1008 804.5 1000" stroke="black" stroke-width="2" stroke-dasharray="5 5"/>
<path id="Vector 50" d="M318 1012C302 1018.17 265.9 1026.8 249.5 1012" stroke="black" stroke-width="2" stroke-dasharray="5 5"/>
<path id="Vector 51" d="M186 1291.5C191.834 1297.33 208.8 1305.5 230 1291.5" stroke="black" stroke-width="2" stroke-dasharray="5 5"/>
<path id="Vector 59" d="M735.5 1291.5C741.334 1297.33 758.3 1305.5 779.5 1291.5" stroke="black" stroke-width="2" stroke-dasharray="5 5"/>
<path id="Vector 52" d="M286.5 1291.5C280.667 1297.33 263.7 1305.5 242.5 1291.5" stroke="black" stroke-width="2" stroke-dasharray="5 5"/>
<path id="Vector 60" d="M840 1291.5C834.167 1297.33 817.2 1305.5 796 1291.5" stroke="black" stroke-width="2" stroke-dasharray="5 5"/>
</g>
<path id="front_of_shoulders" fill-rule="evenodd" clip-rule="evenodd" d="M102.579 295.5C129.579 300.167 200.9 307 244.5 307C288.1 307 350.432 301.167 378.432 296.5C375.692 288.911 371.78 284.454 367.216 279.254L367.206 279.244L367.173 279.206C366.406 278.332 365.62 277.436 364.818 276.5C357.676 268.168 337.624 264.873 323.903 262.619C320.333 262.032 317.192 261.516 314.818 261C305.618 259 282.984 244.833 272.818 238L272.716 238.046C267.157 240.573 254.12 246.5 241 246.5C228.179 246.5 214.619 240.839 208.353 238.223L207.818 238C197.651 244.833 175.018 259 165.818 261C163.444 261.516 160.302 262.032 156.733 262.619C143.011 264.873 122.96 268.168 115.818 276.5C115.001 277.453 114.201 278.365 113.419 279.255C109.06 284.221 105.295 288.51 102.579 295.5Z" fill="#D9D9D9" fill-opacity="0.69"/>
<path id="front_of_neck" fill-rule="evenodd" clip-rule="evenodd" d="M272.818 238V197.994C263.232 209.385 251.672 218.773 239.318 219.5C228.337 220.146 216.938 211.195 207.818 201.003V238L208.354 238.223C214.619 240.839 228.179 246.5 241 246.5C254.12 246.5 267.157 240.573 272.716 238.046L272.818 238Z" fill="#9B9B9B"/>
<path id="scalp" fill-rule="evenodd" clip-rule="evenodd" d="M234.5 62C213.3 62 195.083 57.8333 188.583 56C197.877 43.0352 213.701 34 239.318 34C264.934 34 280.854 43.0352 290.283 56C280.949 57.8333 255.7 62 234.5 62Z" fill="#D9D9D9"/>
<path id="face" fill-rule="evenodd" clip-rule="evenodd" d="M212.818 73C191.465 69.715 184.167 120 183.5 142C185.83 157.14 189.347 175.212 195.318 184.5C204.318 198.5 222.318 220.5 239.318 219.5C256.318 218.5 272.159 200.5 282.818 184.5C288.396 176.128 291.485 161.115 294.681 145.584C294.892 144.558 295.104 143.529 295.317 142.5C295.317 122.5 283.318 73 266.818 73C258.018 73 244.818 77.1667 238.818 79.5C234.969 79.5 233.273 78.7823 230.759 77.7184C227.72 76.4327 223.488 74.6415 212.818 73Z" fill="#D9D9D9"/>
<path id="chest" fill-rule="evenodd" clip-rule="evenodd" d="M335.653 367.273C335.403 366.411 335.15 365.539 334.818 364.5C334.818 363.3 336.167 355 337.5 351.5C338 347.5 340.2 337.9 345 331.5C349.801 325.1 372.818 320.333 382.318 319C381.749 308.954 380.39 301.926 378.432 296.5C350.432 301.167 288.1 307 244.5 307C200.901 307 129.579 300.167 102.579 295.5C100.419 301.059 98.9221 308.326 98.3179 319C107.818 320.333 128.2 325.1 133 331.5C137.801 337.9 140 347.5 140.5 351.5C141.834 355 143.318 363.3 143.318 364.5C142.954 365.636 142.718 366.455 142.481 367.273C142.285 367.955 142.088 368.636 141.818 369.5C139.318 377.5 142.318 404.5 148.318 410.5C149.488 417.063 150.771 423.162 151.97 428.859C152.867 433.123 153.717 437.161 154.437 441C171.27 438.167 213.618 431.6 240.818 432C268.018 432.4 307.766 438 323.599 440.5C324.735 434.381 325.961 427.463 327.281 420.019C327.773 417.247 328.277 414.403 328.795 411.5C329.153 411.158 329.494 410.824 329.818 410.5C335.818 404.5 338.818 377.5 336.318 369.5C336.069 368.705 335.862 367.993 335.653 367.273Z" fill="#9B9B9B" fill-opacity="0.42"/>
<path id="abdomen" fill-rule="evenodd" clip-rule="evenodd" d="M316.318 508C314.697 489.086 317.804 471.725 323.599 440.5C305.266 437.5 262.5 433 236.5 433C210.5 433 170.603 438 154.436 441C160.151 471.504 163.407 489.453 161.818 508C160.504 523.323 153.514 538.801 146.024 555.385C140.071 568.565 133.803 582.444 129.818 597.5C129.07 600.323 128.286 603.494 127.544 606.659C149.044 613.325 202.318 627 238.318 627C274.318 627 327.465 613.167 348.798 606.5C348.321 604.429 347.827 602.425 347.318 600.5C343.458 585.921 337.643 571.894 332.072 558.457C324.65 540.558 317.664 523.708 316.318 508Z" fill="#9B9B9B" fill-opacity="0.78"/>
<g id="palms">
<path id="left_palm" fill-rule="evenodd" clip-rule="evenodd" d="M81.3179 675C60.1178 678.6 49.6511 672.333 46.8177 668C40.1511 671.5 25.7178 680.3 21.3177 687.5C18.3546 692.349 16.4072 698.359 14.6158 703.888C13.8607 706.218 13.1333 708.463 12.3691 710.5C41.8691 710.5 65.5005 720.979 76.5005 734.479C79.7654 724.195 82.4489 715.136 82.8179 712C83.8179 703.5 81.8179 676.5 81.3179 675Z" fill="#9B9B9B" fill-opacity="0.86"/>
<path id="right_palm" fill-rule="evenodd" clip-rule="evenodd" d="M399.277 675C420.477 678.6 430.943 672.333 433.777 668C440.443 671.5 454.877 680.3 459.277 687.5C462.24 692.349 464.187 698.359 465.979 703.888C466.734 706.218 467.461 708.463 468.225 710.5C438.725 710.5 415.094 720.979 404.094 734.479C400.829 724.195 398.146 715.136 397.777 712C396.777 703.5 398.777 676.5 399.277 675Z" fill="#9B9B9B" fill-opacity="0.86"/>
</g>
<g id="fingers">
<path id="left_finger" fill-rule="evenodd" clip-rule="evenodd" d="M76.5004 734.479C65.5004 720.979 41.8691 710.5 12.3691 710.5C11.5813 712.6 10.7543 714.478 9.81782 716C7.70686 719.43 6.29219 722.861 5.0594 725.85C3.95613 728.525 2.99849 730.847 1.81782 732.5C-0.682177 736 12.3178 738.5 15.3178 735.5C17.7177 733.1 23.6511 718.833 26.3178 712C22.6511 731 15.3178 770.5 15.3178 776.5C15.3178 783.202 16.9146 783.516 18.6816 783.863C18.892 783.905 19.1049 783.947 19.3178 784C21.3178 784.5 25.3178 783 26.3178 778.5C27.1178 774.9 32.6511 749.333 35.3178 737C31.9844 752.667 25.5178 784.2 26.3178 785C26.6411 785.323 26.8076 785.96 27.003 786.707C27.4124 788.272 27.9489 790.323 30.3178 791C33.8178 792 36.8178 790 37.8178 787C38.6177 784.6 45.4844 754.333 48.8178 739.5C45.6511 754.667 39.5178 785.2 40.3178 786C40.5678 786.25 40.8178 786.531 41.0678 786.812C41.8178 787.656 42.5678 788.5 43.3178 788.5C43.4488 788.5 43.6312 788.526 43.8526 788.557C45.3226 788.764 48.5142 789.214 49.8178 784C51.0178 779.2 58.3178 752.333 61.8178 739.5C58.9844 750.167 53.5178 772 54.3178 774C55.1512 776.083 55.9846 776.431 56.8179 776.778C56.9846 776.847 57.1512 776.917 57.3178 777C58.3178 777.5 62.8178 776.5 63.3178 774.5C63.4343 774.034 64.5008 770.854 66.081 766.141C68.7803 758.092 72.9787 745.573 76.5004 734.479Z" fill="#D9D9D9" fill-opacity="0.71"/>
<path id="right_finger" fill-rule="evenodd" clip-rule="evenodd" d="M404.501 733.979C415.501 720.479 439.132 710 468.632 710C469.42 712.1 470.247 713.978 471.183 715.5C473.294 718.93 474.709 722.361 475.942 725.35C477.045 728.025 478.002 730.347 479.183 732C481.683 735.5 468.683 738 465.683 735C463.283 732.6 457.35 718.333 454.683 711.5C458.35 730.5 465.683 770 465.683 776C465.683 782.702 464.086 783.016 462.319 783.363C462.109 783.405 461.896 783.447 461.683 783.5C459.683 784 455.683 782.5 454.683 778C453.883 774.4 448.35 748.833 445.683 736.5C449.017 752.167 455.483 783.7 454.683 784.5C454.36 784.823 454.193 785.46 453.998 786.207C453.589 787.772 453.052 789.823 450.683 790.5C447.183 791.5 444.183 789.5 443.183 786.5C442.383 784.1 435.517 753.833 432.183 739C435.35 754.167 441.483 784.7 440.683 785.5C440.433 785.75 440.183 786.031 439.933 786.312C439.183 787.156 438.433 788 437.683 788C437.552 788 437.37 788.026 437.148 788.057C435.678 788.264 432.487 788.714 431.183 783.5C429.983 778.7 422.683 751.833 419.183 739C422.017 749.667 427.483 771.5 426.683 773.5C425.85 775.583 425.016 775.931 424.183 776.278C424.016 776.347 423.85 776.417 423.683 776.5C422.683 777 418.183 776 417.683 774C417.567 773.534 416.5 770.354 414.92 765.641C412.221 757.592 408.022 745.073 404.501 733.979Z" fill="#D9D9D9" fill-opacity="0.71"/>
</g>
<path id="genital_area" fill-rule="evenodd" clip-rule="evenodd" d="M355.693 649C353.967 633.63 351.744 619.278 348.798 606.5C327.465 613.167 274.318 627 238.318 627C202.318 627 149.082 613.167 127.582 606.5C124.573 619.342 121.939 633.683 119.501 649C125.001 648.5 139.218 648.5 148.818 652.5C149.438 652.758 150.053 653.014 150.663 653.268C161.854 657.923 171.386 661.888 181.818 669C187.829 673.099 200.859 686.456 212.094 697.973C221.417 707.53 229.504 715.82 231.318 716.5C235.318 718 239.818 718 242.318 716.5C255.818 701.833 285.725 673.556 293.318 669C294.147 668.503 295.383 667.654 296.934 666.589C302.868 662.513 313.407 655.275 323.318 652.5C333.318 649.7 349.026 649 355.693 649Z" fill="#D9D9D9" fill-opacity="0.71"/>
<g id="front_of_thighs">
<path id="front_of_left_thigh" fill-rule="evenodd" clip-rule="evenodd" d="M129.818 833.5C122.818 805.5 113.818 739 112.818 716C112.238 702.659 115.303 675.366 119.5 649C128 648.5 135.5 648.901 142.5 650.5C147.086 651.547 152.5 653 159.5 656.5C177.5 664.5 185.5 670 204 689.5C210.367 695.958 230.183 716.561 231.5 717C232.409 729.492 231.994 747.245 231.638 762.51C231.472 769.648 231.318 776.243 231.318 781.5C231.318 783.841 230.669 794.878 229.838 808.999C228.364 834.077 226.318 868.885 226.318 882C226.318 893.478 227.355 911.083 228.293 927C228.577 931.812 228.851 936.47 229.085 940.758C197.485 924.358 164.651 934.667 153.318 941.5C148.778 914.848 135.813 857.482 129.818 833.5Z" fill="#9B9B9B" fill-opacity="0.86"/>
<path id="front_of_right_thigh" fill-rule="evenodd" clip-rule="evenodd" d="M342.599 834.259C349.577 806.326 358.548 739.985 359.545 717.04C360.124 703.732 359.013 675.303 354.829 649C346.854 649 334.892 649.999 329.409 650.999C325.599 651.693 318.942 654.003 311.964 657.494C303.49 661.734 295.965 665.856 274.083 685.475C267.736 691.918 242.548 717.6 241.234 718.038C240.329 730.5 240.742 748.211 241.097 763.439C241.263 770.56 241.417 777.139 241.417 782.383C241.417 784.719 242.063 795.729 242.891 809.817C244.361 834.835 246.401 869.559 246.401 882.643C246.401 894.093 245.367 911.656 244.432 927.535C244.149 932.336 243.875 936.982 243.642 941.259C275.143 924.899 307.874 935.183 319.172 942C323.698 915.412 336.622 858.183 342.599 834.259Z" fill="#9B9B9B" fill-opacity="0.86"/>
</g>
<g id="knees">
<path id="right_knee" fill-rule="evenodd" clip-rule="evenodd" d="M245.391 981.034C247.127 990.962 249.117 1002.34 249.971 1013C266.371 1027.8 302.307 1017.96 318.307 1011.79C317.29 997.144 316.046 966.987 317.318 953C317.533 950.632 318.057 946.465 318.818 942C307.484 935.167 275.501 924 242.982 942C242.59 949.128 242.318 955.017 242.318 958.5C242.318 963.469 243.74 971.598 245.391 981.034Z" fill="#D9D9D9" fill-opacity="0.71"/>
<path id="left_knee" fill-rule="evenodd" clip-rule="evenodd" d="M227.928 980.034C226.191 989.962 224.201 1001.34 223.348 1012C206.948 1026.8 171.011 1016.96 155.011 1010.79C156.028 996.144 157.272 965.987 156 952C155.785 949.632 155.261 945.465 154.5 941C165.834 934.167 197.818 923 230.337 941C230.729 948.128 231 954.017 231 957.5C231 962.469 229.578 970.598 227.928 980.034Z" fill="#D9D9D9" fill-opacity="0.71"/>
</g>
<g id="front_of_lower_legs">
<path id="front_of_lower_right_leg" fill-rule="evenodd" clip-rule="evenodd" d="M242.318 1291.5C263.518 1305.5 281.985 1295.33 287.818 1289.5C287.818 1287.94 287.75 1285.77 287.668 1283.12C287.433 1275.6 287.078 1264.21 287.818 1252C288.389 1242.57 298.267 1203.75 306.815 1170.16C313.226 1144.97 318.889 1122.71 319.318 1118C320.318 1107 321.318 1092 321.818 1078.5C322.318 1065 319.818 1027.5 318.818 1018C318.666 1016.55 318.49 1014.42 318.307 1011.79C302.307 1017.96 266.371 1027.3 249.971 1012.5C250.347 1017.2 250.502 1022.26 250.318 1026.5C249.797 1038.5 247.643 1053.48 245.702 1066.99C243.92 1079.39 242.318 1090.54 242.318 1097C242.318 1103.63 243.162 1114.36 244.021 1125.28C244.912 1136.6 245.818 1148.12 245.818 1155.5C245.818 1159.02 245.965 1166.51 246.153 1176.04C246.737 1205.79 247.711 1255.4 245.818 1266C244.504 1273.36 243.604 1276.85 243.046 1279.02C242.543 1280.97 242.318 1281.84 242.318 1283.5V1291.5Z" fill="#9B9B9B" fill-opacity="0.86"/>
<path id="front_of_lower_left_leg" fill-rule="evenodd" clip-rule="evenodd" d="M230.283 1291.47C208.967 1305.53 190.4 1295.32 184.535 1289.46C184.535 1287.89 184.603 1285.72 184.686 1283.06C184.922 1275.5 185.279 1264.06 184.535 1251.8C183.96 1242.33 174.028 1203.35 165.433 1169.61C158.987 1144.31 153.294 1121.96 152.863 1117.22C151.857 1106.18 150.852 1091.11 150.349 1077.55C149.846 1064 152.36 1026.33 153.365 1016.79C153.518 1015.34 153.695 1013.2 153.879 1010.56C169.966 1016.75 206.511 1026.86 223.001 1012C222.622 1016.72 222.054 1021.07 222.239 1025.33C222.764 1037.38 224.929 1052.43 226.881 1066C228.672 1078.45 230.283 1089.65 230.283 1096.13C230.283 1102.79 229.435 1113.57 228.571 1124.53C227.676 1135.9 226.764 1147.47 226.764 1154.89C226.764 1158.42 226.616 1165.94 226.428 1175.52C225.84 1205.39 224.86 1255.21 226.764 1265.86C228.086 1273.25 228.99 1276.76 229.551 1278.93C230.057 1280.89 230.283 1281.77 230.283 1283.44V1291.47Z" fill="#9B9B9B" fill-opacity="0.86"/>
</g>
<g id="upper_arms">
<path id="front_of_left_upperarm" fill-rule="evenodd" clip-rule="evenodd" d="M145.818 407C141.204 397.791 139.618 376.54 141.818 369.5C142.088 368.636 142.285 367.955 142.481 367.273C142.718 366.455 142.954 365.636 143.318 364.5C143.318 363.3 141.834 355 140.5 351.5C140 347.5 137.801 337.9 133 331.5C128.2 325.1 107.818 320.333 98.3179 319C97.6587 330.646 97.6754 339.492 97.6891 346.725C97.7065 355.951 97.7191 362.554 96.3177 369C94.6376 376.729 93.4089 389.201 92.1768 401.71C91.5756 407.813 90.9735 413.926 90.3177 419.5C88.7178 433.1 86.6511 466.833 85.8177 482C85.2354 483.32 84.5769 484.835 83.8643 486.5C93.8643 498.5 118.5 525.4 128.5 527C128.667 525.165 128.814 522.215 128.991 518.654C129.344 511.544 129.818 501.995 130.818 494C132.018 484.4 141.318 432 145.818 407Z" fill="#9B9B9B" fill-opacity="0.86"/>
<path id="front_of_right_upperarm" fill-rule="evenodd" clip-rule="evenodd" d="M333.5 406C338.115 396.791 339.7 375.54 337.5 368.5C337.231 367.636 337.034 366.955 336.837 366.273C336.6 365.455 336.364 364.636 336 363.5C336 362.3 336.837 355.809 337.5 350.5C338 346.5 340 336 345.5 330.5C351 323.5 371.5 319.333 381 318C381.66 329.646 381.643 338.492 381.629 345.725C381.612 354.951 381.599 361.554 383.001 368C384.681 375.729 385.909 388.201 387.142 400.71C387.743 406.813 388.345 412.926 389.001 418.5C390.601 432.1 392.667 465.833 393.501 481C394.083 482.32 394.741 483.835 395.454 485.5C385.454 497.5 361.818 524.4 351.818 526C351.651 524.165 351.505 521.215 351.328 517.654C350.974 510.544 350.5 500.995 349.5 493C348.301 483.4 338 431 333.5 406Z" fill="#9B9B9B" fill-opacity="0.86"/>
<path id="back_of_left_upperarm" d="M649.001 319C658.501 320.333 656.001 318.178 672.001 330C677.316 333.927 681.637 344.018 684.984 356C690.5 386.5 694.502 411.825 693.501 416.5C692.001 423.5 682.701 484.4 681.501 494C680.502 501.994 680.027 511.541 679.674 518.65L679.674 518.654L679.673 518.669C679.496 522.223 679.35 525.167 679.183 527C669.183 525.4 644.547 498.5 634.547 486.5C635.26 484.835 635.918 483.32 636.501 482C637.334 466.833 639.401 433.1 641.001 419.5C641.656 413.927 642.258 407.816 642.859 401.713L642.86 401.71C644.092 389.201 645.321 376.729 647.001 369C648.402 362.554 648.39 355.952 648.372 346.727V346.725V346.725C648.358 339.491 648.342 330.646 649.001 319Z" fill="#D9D9D9" fill-opacity="0.71"/>
<path id="back_of_right_upperarm" d="M932.154 319C923.5 322 925.5 319.5 912 328C898.5 336.5 896.348 337.518 893 349.5C887.484 380 884 396.5 884 402C884 407.5 898.454 484.4 899.654 494C900.653 501.994 901.128 511.541 901.481 518.65L901.481 518.654L901.482 518.669C901.658 522.223 901.805 525.167 901.971 527C911.971 525.4 936.608 498.5 946.608 486.5C945.895 484.835 945.237 483.32 944.654 482C943.821 466.833 941.754 433.1 940.154 419.5C939.498 413.927 938.897 407.816 938.295 401.713L938.295 401.71C937.063 389.201 935.834 376.729 934.154 369C932.753 362.554 932.765 355.952 932.783 346.727V346.725V346.725C932.796 339.491 932.813 330.646 932.154 319Z" fill="#D9D9D9" fill-opacity="0.71"/>
</g>
<g id="forearms">
<path id="front_of_left_forearm" fill-rule="evenodd" clip-rule="evenodd" d="M101.988 609.83C91.1471 643.265 81.0844 674.299 81.3179 675C60.1178 678.6 49.6512 672.333 46.8179 668C49.3179 658.833 54.9178 636.8 57.3179 622C58.7164 613.376 60.4409 596.275 62.1875 578.956C64.1875 559.125 66.2164 539.007 67.8179 531C69.9384 520.398 78.4596 499.128 83.8644 486.5C93.8644 498.5 118 525.9 128 527.5C127.734 530.431 114.355 571.693 101.988 609.83Z" fill="#D9D9D9" fill-opacity="0.71"/>
<path id="front_of_right_forearm" fill-rule="evenodd" clip-rule="evenodd" d="M377.513 609.33C388.354 642.765 398.417 673.799 398.183 674.5C419.383 678.1 429.85 671.833 432.683 667.5C430.183 658.333 424.583 636.3 422.183 621.5C420.785 612.876 419.06 595.775 417.313 578.456C415.313 558.625 413.285 538.507 411.683 530.5C409.563 519.898 401.041 498.628 395.637 486C385.637 498 361.5 525.4 351.5 527C351.767 529.931 365.146 571.193 377.513 609.33Z" fill="#D9D9D9" fill-opacity="0.71"/>
<path id="back_of_left_forearm" fill-rule="evenodd" clip-rule="evenodd" d="M652.671 609.83C641.83 643.265 631.767 674.299 632 675C610.8 678.6 600.334 672.333 597.5 668C600 658.833 605.6 636.8 608 622C609.399 613.376 611.124 596.275 612.87 578.956C614.87 559.125 616.899 539.007 618.5 531C620.621 520.398 629.142 499.128 634.547 486.5C644.547 498.5 668.683 525.9 678.683 527.5C678.417 530.431 665.037 571.693 652.671 609.83Z" fill="#9B9B9B" fill-opacity="0.86"/>
<path id="back_of_right_forearm" fill-rule="evenodd" clip-rule="evenodd" d="M928.195 609.33C939.036 642.765 949.099 673.799 948.866 674.5C970.066 678.1 980.532 671.833 983.366 667.5C980.866 658.333 975.266 636.3 972.866 621.5C971.467 612.876 969.743 595.775 967.996 578.456C965.996 558.625 963.967 538.507 962.366 530.5C960.245 519.898 951.724 498.628 946.319 486C936.319 498 912.183 525.4 902.183 527C902.45 529.931 915.829 571.193 928.195 609.33Z" fill="#9B9B9B" fill-opacity="0.86"/>
</g>
<path id="back_of_shoulders" fill-rule="evenodd" clip-rule="evenodd" d="M652.5 295.5C679.5 300.167 750.822 307 794.422 307C838.022 307 900.353 301.167 928.353 296.5C925.614 288.911 921.702 284.454 917.138 279.254L917.128 279.244L917.095 279.206C916.328 278.332 915.542 277.436 914.74 276.5C907.598 268.168 887.546 264.873 873.825 262.619C870.255 262.032 867.114 261.516 864.74 261C855.54 259 832.906 244.833 822.74 238L822.638 238.046C817.079 240.573 804.041 246.5 790.922 246.5C778.101 246.5 764.541 240.839 758.275 238.223L757.74 238C747.573 244.833 724.94 259 715.74 261C713.365 261.516 710.224 262.032 706.655 262.619C692.933 264.873 672.882 268.168 665.74 276.5C664.923 277.453 664.123 278.365 663.341 279.255C658.982 284.221 655.217 288.51 652.5 295.5Z" fill="#D9D9D9" fill-opacity="0.69"/>
<path id="back_of_head" fill-rule="evenodd" clip-rule="evenodd" d="M789.5 82C813.059 82 831.513 65.2463 833.462 44.241C870.5 75 846.5 124.5 843 153.324C839.761 180 808 198 789.5 198C773.999 198 740.589 182.5 737 153.324C734.5 133 707.501 71 745 44.241C746.949 65.2463 765.942 82 789.5 82Z" fill="#D9D9D9" fill-opacity="0.71"/>
<path id="back_of_neck" fill-rule="evenodd" clip-rule="evenodd" d="M760.25 239.044C759.357 238.656 758.544 238.303 757.818 238V186C766.467 193.013 777.352 197.808 789.161 197.995C801.88 198.196 813.511 192.833 822.744 185L822.818 238C817.318 240.5 802.2 246.5 789 246.5C777.398 246.5 766.736 241.864 760.25 239.044Z" fill="#9B9B9B" fill-opacity="0.86"/>
<g id="back_of_hands">
<path id="back_of_left_hand" fill-rule="evenodd" clip-rule="evenodd" d="M616.08 766.144C614.501 770.855 613.434 774.034 613.318 774.5C612.818 776.5 608.318 777.5 607.318 777C607.151 776.917 606.985 776.847 606.818 776.778C605.985 776.431 605.151 776.083 604.318 774C603.518 772 608.984 750.167 611.818 739.5C608.318 752.333 601.018 779.2 599.818 784C598.514 789.214 595.323 788.764 593.853 788.557C593.631 788.526 593.449 788.5 593.318 788.5C592.568 788.5 591.818 787.656 591.068 786.812C590.818 786.531 590.568 786.25 590.318 786C589.518 785.2 595.651 754.667 598.818 739.5C595.484 754.333 588.618 784.6 587.818 787C586.818 790 583.818 792 580.318 791C577.949 790.323 577.412 788.272 577.003 786.707C576.808 785.96 576.641 785.323 576.318 785C575.518 784.2 581.984 752.667 585.318 737C582.651 749.333 577.118 774.9 576.318 778.5C575.318 783 571.318 784.5 569.318 784C569.105 783.947 568.892 783.905 568.682 783.863C566.915 783.516 565.318 783.202 565.318 776.5C565.318 770.5 572.651 731 576.318 712C573.651 718.833 567.718 733.1 565.318 735.5C562.318 738.5 549.318 736 551.818 732.5C552.999 730.847 553.956 728.525 555.059 725.85C556.292 722.861 557.707 719.43 559.818 716C561.663 713.002 563.082 708.621 564.616 703.887C566.407 698.359 568.355 692.349 571.318 687.5C575.718 680.3 590.834 670.5 597.5 667C600.334 671.333 610.118 678.6 631.318 675C631.818 676.5 633.818 703.5 632.818 712C632.051 718.52 621.282 750.633 616.08 766.144Z" fill="#D9D9D9" fill-opacity="0.71"/>
<path id="back_of_right_hand" fill-rule="evenodd" clip-rule="evenodd" d="M964.514 766.144C966.094 770.855 967.16 774.034 967.277 774.5C967.777 776.5 972.277 777.5 973.277 777C973.443 776.917 973.61 776.847 973.776 776.778C974.61 776.431 975.443 776.083 976.277 774C977.077 772 971.61 750.167 968.777 739.5C972.277 752.333 979.577 779.2 980.777 784C982.08 789.214 985.272 788.764 986.742 788.557C986.963 788.526 987.146 788.5 987.277 788.5C988.027 788.5 988.777 787.656 989.527 786.812C989.777 786.531 990.027 786.25 990.277 786C991.077 785.2 984.943 754.667 981.777 739.5C985.11 754.333 991.977 784.6 992.777 787C993.777 790 996.777 792 1000.28 791C1002.65 790.323 1003.18 788.272 1003.59 786.707C1003.79 785.96 1003.95 785.323 1004.28 785C1005.08 784.2 998.61 752.667 995.277 737C997.943 749.333 1003.48 774.9 1004.28 778.5C1005.28 783 1009.28 784.5 1011.28 784C1011.49 783.947 1011.7 783.905 1011.91 783.863C1013.68 783.516 1015.28 783.202 1015.28 776.5C1015.28 770.5 1007.94 731 1004.28 712C1006.94 718.833 1012.88 733.1 1015.28 735.5C1018.28 738.5 1031.28 736 1028.78 732.5C1027.6 730.847 1026.64 728.525 1025.54 725.85C1024.3 722.861 1022.89 719.43 1020.78 716C1018.93 713.002 1017.51 708.621 1015.98 703.887C1014.19 698.359 1012.24 692.349 1009.28 687.5C1004.88 680.3 989.761 670.5 983.094 667C980.261 671.333 970.477 678.6 949.277 675C948.777 676.5 946.777 703.5 947.777 712C948.544 718.52 959.313 750.633 964.514 766.144Z" fill="#D9D9D9" fill-opacity="0.71"/>
</g>
<path id="buttocks" fill-rule="evenodd" clip-rule="evenodd" d="M791.5 609.5C751.101 609.5 696.362 615.062 674.528 617.728C671.419 632.287 668.789 648.023 666.648 663.828C671.981 675.828 690.101 703 712.5 717C740.5 734.5 754.5 736.5 763.5 736.5C772.5 736.5 778 734 781.5 731.5C785.434 728.691 788.334 725.667 789 724C790.334 726.167 793.917 729.912 798 732.5C806.025 737.585 815.352 737.263 821.843 737.039C822.24 737.025 822.626 737.012 823 737C839 736.5 859.5 723.5 867 717C874.5 710.5 909.5 667.5 909.5 667.5C907.323 650.567 904.364 633.333 901 617.5C881.334 614.833 831.9 609.5 791.5 609.5Z" fill="#D9D9D9" fill-opacity="0.71"/>
<path id="back_of_thighs" fill-rule="evenodd" clip-rule="evenodd" d="M704.585 999C705.281 983.823 705.521 963.288 704.585 953C703.085 936.5 686.585 861.5 679.585 833.5C672.585 805.5 663.585 739 662.585 716C662.098 704.787 663.749 685.136 666.613 664C671.946 676 690.101 703 712.5 717C740.5 734.5 754.5 736.5 763.5 736.5C771.293 736.5 776.462 734.626 779.98 732.5C781.142 748.465 781.118 761.271 781.093 775.209C781.089 777.277 781.085 779.369 781.085 781.5C781.085 783.842 780.436 794.878 779.606 808.999C778.132 834.078 776.085 868.885 776.085 882C776.085 893.511 777.189 912.275 778.157 928.729C778.912 941.578 779.585 953.019 779.585 958.5C779.585 963.535 778.007 972.669 776.247 982.858C775.313 988.26 774.328 993.958 773.5 999.5C747 1007.5 719.768 1005.04 704.585 999Z" fill="#9B9B9B" fill-opacity="0.86"/>
<path id="back_of_thighs_2" fill-rule="evenodd" clip-rule="evenodd" d="M871.015 999C870.32 983.823 870.08 963.288 871.015 953C872.515 936.5 889.015 861.5 896.015 833.5C903.015 805.5 912.015 739 913.015 716C913.503 704.787 911.851 685.136 908.987 664C903.654 676 885.5 703 863.1 717C835.1 734.5 821.1 736.5 812.1 736.5C804.307 736.5 799.139 734.626 795.62 732.5C794.459 748.465 794.482 761.271 794.508 775.209C794.511 777.277 794.515 779.369 794.515 781.5C794.515 783.842 795.164 794.878 795.995 808.999C797.469 834.078 799.515 868.885 799.515 882C799.515 893.511 798.412 912.275 797.444 928.729C796.688 941.578 796.015 953.019 796.015 958.5C796.015 963.535 797.593 972.669 799.354 982.858C800.288 988.26 801.272 993.958 802.1 999.5C828.6 1007.5 855.833 1005.04 871.015 999Z" fill="#9B9B9B" fill-opacity="0.86"/>
<g id="back_of_lower_legs">
<path id="back_of_lower_left_legs" fill-rule="evenodd" clip-rule="evenodd" d="M779.479 1291.5C779.007 1290.28 778.482 1288.7 777.902 1286.5C775.902 1278.9 775.402 1269.5 775.402 1269.5C775.402 1269.5 776.085 1170 776.085 1155.5C776.085 1148.12 776.991 1136.6 777.882 1125.28C778.741 1114.36 779.585 1103.63 779.585 1097C779.585 1090.54 777.983 1079.39 776.201 1066.99C774.26 1053.48 772.106 1038.5 771.585 1026.5C771.201 1017.68 772.013 1009.45 773.5 999.5C747 1007.5 719.683 1005.04 704.5 999C704.081 1008.16 703.462 1014.42 703.085 1018C702.085 1027.5 699.585 1065 700.085 1078.5C700.585 1092 701.585 1107 702.585 1118C703.014 1122.71 708.677 1144.97 715.088 1170.16C723.636 1203.75 733.514 1242.57 734.085 1252C734.675 1261.74 735.258 1277.64 735.5 1291.5C741.334 1297.33 758.279 1305.5 779.479 1291.5Z" fill="#D9D9D9" fill-opacity="0.71"/>
<path id="back_of_lower_right_legs" fill-rule="evenodd" clip-rule="evenodd" d="M796.106 1291.5C796.578 1290.28 797.104 1288.7 797.683 1286.5C799.683 1278.9 800.183 1269.5 800.183 1269.5C800.183 1269.5 799.501 1170 799.501 1155.5C799.501 1148.12 798.594 1136.6 797.704 1125.28C796.845 1114.36 796.001 1103.63 796.001 1097C796.001 1090.54 797.603 1079.39 799.384 1066.99C801.325 1053.48 803.479 1038.5 804.001 1026.5C804.384 1017.68 803.572 1009.45 802.085 999.5C828.585 1007.5 855.903 1005.04 871.085 999C871.505 1008.16 872.124 1014.42 872.5 1018C873.5 1027.5 876 1065 875.5 1078.5C875 1092 874 1107 873 1118C872.572 1122.71 866.909 1144.97 860.498 1170.16C851.95 1203.75 842.072 1242.57 841.5 1252C840.91 1261.74 840.327 1277.64 840.085 1291.5C834.252 1297.33 817.306 1305.5 796.106 1291.5Z" fill="#D9D9D9" fill-opacity="0.71"/>
</g>
<g id="feet">
<path id="feet_front_right" fill-rule="evenodd" clip-rule="evenodd" d="M286.829 1299.65C287.264 1296.79 287.818 1293.15 287.818 1289.5C281.984 1295.33 263.518 1305.5 242.318 1291.5V1302V1319.5C242.318 1324.08 241.174 1333.39 240.194 1341.37C239.46 1347.35 238.818 1352.57 238.818 1354.5C238.818 1359 239.318 1363.5 240.318 1367.5C241.167 1370.9 243.818 1374.5 245.818 1376C247.818 1377.5 250.818 1378 254.818 1378C258.018 1378 261.484 1376.67 262.818 1376C264.984 1376.33 269.818 1377 271.818 1377C273.818 1377 277.318 1374.67 278.818 1373.5C279.651 1373.83 282.118 1374.5 285.318 1374.5C288.518 1374.5 290.984 1372.5 291.818 1371.5C291.555 1372.16 297.818 1372.5 299.818 1371.5C301.418 1370.7 303.484 1368.5 304.318 1367.5C305.318 1368.17 307.918 1369.1 310.318 1367.5L310.555 1367.34C313.448 1365.42 315.818 1363.84 315.818 1358C315.818 1351.53 305.61 1339.56 299.708 1332.63C299.212 1332.05 298.745 1331.5 298.318 1331C292.818 1324.5 286.318 1306.5 286.318 1304C286.318 1303.02 286.549 1301.5 286.829 1299.65Z" fill="#D9D9D9" fill-opacity="0.71"/>
<path id="feet_front_left" fill-rule="evenodd" clip-rule="evenodd" d="M185.489 1299.65C185.054 1296.79 184.5 1293.15 184.5 1289.5C190.334 1295.33 208.801 1305.5 230 1291.5V1302V1319.5C230 1324.08 231.144 1333.39 232.124 1341.37C232.858 1347.35 233.5 1352.57 233.5 1354.5C233.5 1359 233 1363.5 232 1367.5C231.152 1370.9 228.5 1374.5 226.5 1376C224.5 1377.5 221.5 1378 217.5 1378C214.301 1378 210.834 1376.67 209.5 1376C207.334 1376.33 202.5 1377 200.5 1377C198.5 1377 195 1374.67 193.5 1373.5C192.667 1373.83 190.2 1374.5 187 1374.5C183.801 1374.5 181.334 1372.5 180.5 1371.5C180.763 1372.16 174.5 1372.5 172.5 1371.5C170.901 1370.7 168.834 1368.5 168 1367.5C167 1368.17 164.401 1369.1 162 1367.5L161.764 1367.34C158.87 1365.42 156.5 1363.84 156.5 1358C156.5 1351.53 166.709 1339.56 172.61 1332.63C173.107 1332.05 173.573 1331.5 174 1331C179.5 1324.5 186 1306.5 186 1304C186 1303.02 185.77 1301.5 185.489 1299.65Z" fill="#D9D9D9" fill-opacity="0.71"/>
<path id="feet_back_left" fill-rule="evenodd" clip-rule="evenodd" d="M735.591 1311.04C735.607 1307.15 735.638 1299.4 735.5 1291.5C741.334 1297.33 758.279 1305.5 779.479 1291.5C779.976 1292.78 780.413 1293.65 780.79 1294.4C781.603 1296.02 782.14 1297.09 782.403 1300.5C782.802 1305.7 780.903 1317.67 779.903 1323C782.069 1331.67 786.403 1350.8 786.403 1358C786.403 1367 783.72 1371.5 779.903 1375C776.085 1378.5 763.403 1379 759.403 1378C757.729 1377.58 754.195 1376.29 750.27 1374.85C744.812 1372.85 738.6 1370.58 735.585 1370C733.568 1369.61 730.669 1369.45 727.615 1369.28C722.823 1369.01 717.651 1368.72 714.903 1367.5C711.302 1365.9 706.085 1363.06 706.085 1358C706.085 1350.49 711.598 1346.81 717.625 1342.8C720.822 1340.67 724.163 1338.45 726.903 1335.5L737.216 1321.5C736.326 1319.31 735.585 1316.41 735.585 1313C735.585 1312.56 735.588 1311.89 735.591 1311.04Z" fill="#9B9B9B" fill-opacity="0.86"/>
<path id="feet_back_right" fill-rule="evenodd" clip-rule="evenodd" d="M839.912 1311.04C839.896 1307.15 839.865 1299.4 840.003 1291.5C834.169 1297.33 817.224 1305.5 796.024 1291.5C795.528 1292.78 795.091 1293.65 794.713 1294.4C793.9 1296.02 793.363 1297.09 793.101 1300.5C792.701 1305.7 794.601 1317.67 795.601 1323C793.434 1331.67 789.101 1350.8 789.101 1358C789.101 1367 791.783 1371.5 795.601 1375C799.418 1378.5 812.101 1379 816.101 1378C817.774 1377.58 821.308 1376.29 825.233 1374.85C830.691 1372.85 836.903 1370.58 839.918 1370C841.936 1369.61 844.834 1369.45 847.888 1369.28C852.68 1369.01 857.852 1368.72 860.601 1367.5C864.201 1365.9 869.418 1363.06 869.418 1358C869.418 1350.49 863.905 1346.81 857.879 1342.8C854.681 1340.67 851.34 1338.45 848.601 1335.5L838.287 1321.5C839.177 1319.31 839.918 1316.41 839.918 1313C839.918 1312.56 839.915 1311.89 839.912 1311.04Z" fill="#9B9B9B" fill-opacity="0.86"/>
</g>
<path id="back" fill-rule="evenodd" clip-rule="evenodd" d="M693.831 558.457C701.252 540.558 708.239 523.708 709.585 508C711.061 490.786 702.095 445.794 693.586 403.093C690.231 386.259 686.947 369.78 684.402 355.5C683.602 350 680.2 337.3 673 330.5C664 322 655 319.5 649 319C649.334 312.333 650.5 299.5 652.5 296C679.5 300.667 748.9 307 792.5 307C836.101 307 900 300.167 928 295.5C928.801 297.1 931.5 311.833 932 319C921.813 320.329 905.347 332.645 899.288 337.176C898.508 337.76 897.9 338.215 897.5 338.5C894.7 340.5 892.334 350.333 891.5 355C888.956 369.28 885.672 385.759 882.317 402.595C873.808 445.295 864.843 490.287 866.318 507.5C867.664 523.208 874.65 540.058 882.072 557.957C887.643 571.394 893.459 585.421 897.318 600C898.686 605.17 900.032 610.907 901.326 617C831.826 606.5 737 607.5 674.683 617C675.945 611.093 677.254 605.529 678.585 600.5C682.444 585.921 688.26 571.894 693.831 558.457Z" fill="#9B9B9B" fill-opacity="0.86"/>
</g>
</svg>
