<svg width="664" height="710" viewBox="0 0 664 710" fill="none" xmlns="http://www.w3.org/2000/svg">
<rect width="664" height="710" fill="#F5F5F5"/>
<g id="male_bodymap">
<g id="Group 153">
<g id="feet">
<path fill-rule="evenodd" clip-rule="evenodd" d="M495.885 653.476C496.865 650.428 497.317 649.02 494.972 638.2C494.593 636.833 494.277 634.967 494.03 632.745C484.83 635.577 479.763 635.484 470.865 632.745C472.279 638.198 472.928 641.742 460.842 643.65C449.934 646.104 441.054 652.102 443.449 655.646C445.337 658.44 461.118 668.348 469.096 670.914C475.876 673.095 492.156 674.186 493.564 668.46C494.268 665.598 494.268 664.234 494.268 662.803C494.268 661.372 494.268 659.872 494.972 656.737C495.284 655.347 495.606 654.345 495.885 653.476Z" fill="#D9D9D9"/>
<path fill-rule="evenodd" clip-rule="evenodd" d="M553.12 632.745C543.99 635.985 539.005 635.874 529.955 632.745C529.707 634.967 529.391 636.833 529.013 638.2C526.667 649.02 527.12 650.428 528.1 653.476C528.379 654.345 528.701 655.347 529.013 656.737C529.717 659.872 529.717 661.372 529.717 662.803C529.717 664.234 529.717 665.598 530.421 668.46C531.829 674.186 548.109 673.095 554.889 670.914C562.867 668.348 578.648 658.44 580.536 655.646C582.931 652.102 574.05 646.104 563.143 643.65C551.056 641.742 551.706 638.198 553.12 632.745Z" fill="#D9D9D9"/>
<path d="M98.9353 697.908C98.3457 697.09 96.5769 697.635 95.9873 690.819C95.4255 684.324 113.068 651.832 109.627 632.745C111.535 634.563 119.085 638.2 134.016 638.2C135.784 648.288 138.732 658.648 133.426 668.735C134.31 683.458 134.605 693.545 131.657 697.09C130.478 705.814 127.53 709.086 124.582 708.54C121.634 707.995 122.519 705.814 120.16 705.269C117.802 704.723 114.559 707.177 113.38 704.178C109.843 703.633 104.831 704.996 103.652 700.634C99.2301 700.361 99.5249 698.725 98.9353 697.908Z" fill="#5C5C5C"/>
<path d="M203.088 697.908C203.678 697.09 205.446 697.635 206.036 690.819C206.598 684.324 188.956 651.832 192.397 632.745C190.488 634.563 182.939 638.2 168.008 638.2C166.239 648.288 163.291 658.648 168.597 668.735C167.713 683.458 167.418 693.545 170.366 697.09C171.545 705.814 174.493 709.086 177.441 708.54C180.389 707.995 179.505 705.814 181.863 705.269C184.221 704.723 187.464 707.177 188.643 704.178C192.181 703.633 197.192 704.996 198.371 700.634C202.793 700.361 202.499 698.725 203.088 697.908Z" fill="#5C5C5C"/>




</g>
<g id="front_of_lower_legs">
<path d="M134.016 596.759C130.774 616.116 132.248 628.113 134.016 638.2C119.086 638.2 111.536 634.563 109.628 632.745C109.458 631.803 109.236 630.893 108.959 630.021C95.2536 577.171 92.5311 537.526 96.1756 514.421C101.784 515.875 118.083 518.783 138.41 518.783C139.431 526.768 140.37 536.135 139.617 547.139C138.143 568.678 137.259 577.402 134.016 596.759Z" fill="#D9D9D9"/>
<path d="M168.009 596.759C171.251 616.116 169.777 628.113 168.009 638.2C182.939 638.2 190.489 634.563 192.397 632.745C192.567 631.803 192.789 630.893 193.066 630.021C206.771 577.171 209.494 537.526 205.849 514.421C200.241 515.875 183.942 518.783 163.615 518.783C162.594 526.768 161.655 536.135 162.408 547.139C163.882 568.678 164.766 577.402 168.009 596.759Z" fill="#D9D9D9"/>


</g>
<g id="knees">
<path d="M100.412 499.428C100.579 495.105 99.8474 489.908 98.7134 484.158C104.031 485.521 119.263 488.247 137.653 488.247C137.148 493.236 136.794 497.152 136.671 499.428C136.383 504.762 137.434 511.139 138.411 518.783C118.084 518.783 101.786 515.875 96.1772 514.421C97.1578 508.204 98.5992 503.185 100.412 499.428Z" fill="#707070"/>
<path d="M201.617 499.428C201.45 495.105 202.181 489.908 203.315 484.158C197.997 485.521 182.765 488.247 164.375 488.247C164.88 493.236 165.234 497.152 165.357 499.428C165.646 504.762 164.594 511.139 163.617 518.783C183.944 518.783 200.243 515.875 205.851 514.421C204.87 508.204 203.429 503.185 201.617 499.428Z" fill="#707070"/>


</g>
<g id="front_of_thighs">
<path d="M148.076 366.106C147.631 382.327 146.816 402.75 145.513 416.001C143.647 434.985 139.566 469.333 137.652 488.247C119.262 488.247 104.03 485.521 98.7121 484.158C95.841 469.601 90.3874 451.503 90.3874 435.086C86.4692 415.517 86.6016 385.834 88.4772 358.2C99.4483 363.434 132.781 365.652 148.076 366.106Z" fill="#D9D9D9"/>
<path d="M153.95 366.106C154.394 382.327 155.21 402.75 156.512 416.001C158.378 434.985 162.459 469.333 164.374 488.247C182.764 488.247 197.996 485.521 203.314 484.158C206.185 469.601 211.638 451.503 211.638 435.086C215.557 415.517 215.424 385.834 213.549 358.2C202.577 363.434 169.245 365.652 153.95 366.106Z" fill="#D9D9D9"/>


</g>
<g id="fingers">
<path d="M13.4457 350.838C9.02384 362.834 -1.29385 358.747 0.7697 353.567C2.15672 352.988 3.55774 350.468 4.99789 347.294C11.0875 343.75 52.5519 345.386 45.8766 360.653C41.2423 371.253 35.4561 376.924 33.4918 378.377C30.5438 380.558 28.1855 381.649 26.4167 382.467C24.648 383.285 24.648 381.649 22.8792 381.921C21.1105 382.194 19.0469 383.557 17.8677 383.557C16.6886 383.557 14.0354 383.557 11.0875 378.65C7.84477 370.743 12.5614 361.471 13.4457 350.838Z" fill="#C4C2C2"/>
<path d="M288.579 350.838C293.001 362.834 303.318 358.747 301.255 353.567C299.868 352.988 298.467 350.468 297.027 347.294C290.937 343.75 249.473 345.386 256.148 360.653C260.782 371.253 266.569 376.924 268.533 378.377C271.481 380.558 273.839 381.649 275.608 382.467C277.377 383.285 277.377 381.649 279.145 381.921C280.914 382.194 282.978 383.557 284.157 383.557C285.336 383.557 287.989 383.557 290.937 378.65C294.18 370.743 289.463 361.471 288.579 350.838Z" fill="#C4C2C2"/>


</g>
<g id="palms">
<path d="M13.4474 331.211C16.7323 328.743 19.4453 327.597 22.8808 325.286C25.6008 324.058 35.1867 323.189 51.7705 329.541L51.7743 329.58L51.7743 329.581C52.0678 332.668 52.3576 335.717 51.7705 337.482C50.8049 346.908 48.5301 354.588 45.8782 360.653C52.5535 345.386 11.0891 343.75 4.99948 347.294C7.63332 341.49 10.3981 333.502 13.4474 331.211Z" fill="#D9D9D9"/>
<path d="M288.58 331.211C285.296 328.743 282.583 327.597 279.147 325.286C276.427 324.058 266.841 323.189 250.257 329.541L250.253 329.58L250.253 329.581C249.96 332.668 249.67 335.717 250.257 337.482C251.223 346.908 253.498 354.588 256.15 360.653C249.474 345.386 290.939 343.75 297.028 347.294C294.394 341.49 291.63 333.502 288.58 331.211Z" fill="#D9D9D9"/>


</g>
<g id="genital_area">
<path d="M150.91 347.842H148.461C148.4 352.4 148.275 358.831 148.075 366.106C132.78 365.652 99.4474 363.434 88.4763 358.2C90.3095 331.192 93.8078 306.141 96.8171 294.403C97.461 296.854 113.848 301.483 151.012 301.491C188.176 301.483 204.563 296.854 205.207 294.403C208.216 306.141 211.714 331.192 213.548 358.2C202.577 363.434 169.244 365.652 153.949 366.106C153.749 358.831 153.624 352.4 153.563 347.842H151.114H150.91Z" fill="#868686" fill-opacity="0.86"/>

</g>
<g id="abdomen">
<path d="M99.2324 287.862C99.822 282.136 97.7584 235.243 97.4636 232.516C97.3139 231.132 94.2002 224.265 90.9781 216.056C100.301 218.903 125.343 224.593 151.014 224.608C176.685 224.593 201.727 218.903 211.05 216.056C207.828 224.265 204.714 231.132 204.564 232.516C204.27 235.243 202.206 282.136 202.796 287.862C203.526 288.774 204.348 291.043 205.209 294.403C204.565 296.854 188.178 301.483 151.014 301.491C113.85 301.483 97.463 296.854 96.8191 294.403C97.6804 291.043 98.5017 288.774 99.2324 287.862Z" fill="#E2E2E2"/>

</g>
<g id="chest">
<path d="M151.012 159.447C97.4307 159.437 73.202 151.173 53.9153 144.452C52.0809 148.197 50.7897 152.56 50.2947 157.648C59.5944 160.611 78.7645 168.663 81.0475 177.169C83.3304 185.675 83.9011 190.711 83.9011 192.166C84.6267 198.876 87.8523 208.097 90.9761 216.056C100.299 218.903 125.341 224.593 151.012 224.608C176.683 224.593 201.725 218.903 211.048 216.056C214.172 208.097 217.397 198.876 218.123 192.166C218.123 190.711 218.694 185.675 220.977 177.169C223.259 168.663 242.43 160.611 251.729 157.648C251.234 152.56 249.943 148.197 248.109 144.452C228.822 151.173 204.593 159.437 151.012 159.447Z" fill="#9B9B9B"/>

</g>
<g id="front_of_shoulders">
<path d="M90.9775 121.008C94.7509 119.699 117.705 109.375 128.711 104.377C128.711 105.734 138.188 113.874 151.013 113.917C163.838 113.874 173.316 105.734 173.316 104.377C184.322 109.375 207.276 119.699 211.049 121.008C214.658 122.26 238.634 125.107 248.11 144.452C228.823 151.173 204.595 159.437 151.013 159.447C97.4321 159.437 73.2034 151.173 53.9167 144.452C63.3934 125.107 87.3685 122.26 90.9775 121.008Z" fill="#D9D9D9"/>

</g>
<g id="front_of_neck">
<path d="M128.71 104.377V85.5651C131.813 86.5616 140.605 91.5284 151.013 91.5606C161.421 91.5284 170.212 86.5616 173.315 85.5651V104.377C173.315 105.734 163.838 113.874 151.013 113.917C138.188 113.874 128.71 105.734 128.71 104.377Z" fill="#A6A6A6"/>

</g>
<g id="scalp">
<path d="M118.983 20.8388C125.792 0.774713 148.847 0.503137 151.013 0.500033C153.18 0.503138 176.235 0.774729 183.044 20.8388C177.685 21.6908 163.796 22.0365 151.013 22.0383C138.231 22.0365 124.341 21.6908 118.983 20.8388Z" fill="#C6C6C6"/>

</g>
<g id="back_of_hands">
<path d="M374.446 350.838C370.024 362.834 359.706 358.747 361.77 353.567C363.157 352.988 364.558 350.468 365.998 347.294C368.632 341.49 371.396 333.502 374.446 331.211C377.731 328.743 380.444 327.597 383.879 325.286C393.512 324.084 412.776 323.26 412.773 329.58L412.773 329.581C413.066 332.668 413.356 335.717 412.769 337.482C411.803 346.908 409.529 354.588 406.877 360.653C402.242 371.253 396.456 376.924 394.492 378.377C391.544 380.558 389.186 381.649 387.417 382.467C385.648 383.285 385.648 381.649 383.879 381.921C382.11 382.194 380.047 383.557 378.868 383.557C377.689 383.557 375.035 383.557 372.087 378.65C368.845 370.743 373.561 361.471 374.446 350.838Z" fill="#C9C9C9"/>
<path d="M649.579 350.838C654.001 362.834 664.318 358.747 662.255 353.567C660.868 352.988 659.467 350.468 658.027 347.294C655.393 341.49 652.628 333.502 649.579 331.211C646.294 328.743 643.581 327.597 640.145 325.286C630.513 324.084 611.249 323.26 611.252 329.58L611.252 329.581C610.958 332.668 610.669 335.717 611.256 337.482C612.221 346.908 614.496 354.588 617.148 360.653C621.782 371.253 627.569 376.924 629.533 378.377C632.481 380.558 634.839 381.649 636.608 382.467C638.377 383.285 638.377 381.649 640.145 381.921C641.914 382.194 643.978 383.557 645.157 383.557C646.336 383.557 648.989 383.557 651.937 378.65C655.18 370.743 650.463 361.471 649.579 350.838Z" fill="#C9C9C9"/>

</g>
<g id="back_of_thighs">
<path d="M509.073 366.106C508.628 382.327 507.812 402.75 506.51 416.001C504.644 434.985 500.563 469.333 498.648 488.247C498.143 493.236 497.789 497.152 497.666 499.428C497.669 500.79 493.963 503.515 479.12 503.515C464.276 503.515 461.126 500.79 461.407 499.428C461.574 495.105 460.843 489.908 459.709 484.158C456.837 469.601 451.384 451.503 451.384 435.086C447.466 415.517 447.598 385.834 449.474 358.2C460.445 363.434 493.777 365.652 509.073 366.106Z" fill="#D9D9D9"/>
<path d="M514.946 366.106C515.391 382.327 516.206 402.75 517.509 416.001C519.375 434.985 523.456 469.333 525.37 488.247C525.875 493.236 526.229 497.152 526.352 499.428C526.35 500.79 528.456 503.515 543.974 503.515C559.492 503.515 563.455 500.79 562.612 499.428C562.445 495.105 563.176 489.908 564.31 484.158C567.181 469.601 572.635 451.503 572.635 435.086C576.553 415.517 576.421 385.834 574.545 358.2C563.574 363.434 530.241 365.652 514.946 366.106Z" fill="#D9D9D9"/>


</g>
<g id="buttocks">
<path d="M511.907 334.753L511 350.5C510.939 355.059 510.5 360 509.072 366.106C493.777 365.652 460.444 363.434 449.473 358.2C451.306 331.192 454.804 306.141 457.813 294.403C458.457 296.854 474.844 301.483 512.008 301.491C549.172 301.483 565.559 296.854 566.203 294.403C569.213 306.141 572.711 331.192 574.544 358.2C563.573 363.434 530.24 365.652 514.945 366.106C514 360 513 355.5 513 350.5L511.907 334.753Z" fill="#8C8C8C"/>

</g>
<g id="back_of_shoulders">
<path d="M451.974 121.008C455.747 119.699 478.702 109.375 489.707 104.377C489.707 105.734 499.185 113.874 512.01 113.917C524.835 113.874 534.312 105.734 534.312 104.377C545.318 109.375 568.272 119.699 572.046 121.008C575.655 122.26 599.63 125.107 609.107 144.452C589.82 151.173 565.591 159.437 512.01 159.447C458.429 159.437 434.2 151.173 414.913 144.452C424.39 125.107 448.365 122.26 451.974 121.008Z" fill="#A3A3A3"/>

</g>
<g id="back_of_neck">
<path d="M489.707 104.377V85.5651C492.809 86.5616 501.601 91.5284 512.009 91.5606C522.417 91.5284 531.209 86.5616 534.312 85.5651V104.377C534.312 105.734 524.834 113.874 512.009 113.917C499.184 113.874 489.707 105.734 489.707 104.377Z" fill="#898989"/>

</g>
<path id="face" fill-rule="evenodd" clip-rule="evenodd" d="M118.981 20.8389C116.992 26.6976 116.389 34.2888 118.096 44.1244L118.981 68.9344C118.273 77.2225 125.171 83.475 128.709 85.5652C129.375 85.7791 130.303 86.1761 131.454 86.6679C135.661 88.4669 142.838 91.5354 151.011 91.5607C159.185 91.5354 166.361 88.467 170.569 86.668C171.719 86.1761 172.648 85.7791 173.314 85.5652C176.851 83.475 183.749 77.2225 183.042 68.9344L183.926 44.1244C185.633 34.2888 185.03 26.6976 183.042 20.8389C177.683 21.6909 163.794 22.0366 151.011 22.0384C138.229 22.0366 124.34 21.6909 118.981 20.8389Z" fill="#D9D9D9" stroke="white" stroke-linejoin="round"/>
<g id="back_of_lower_legs">
<path fill-rule="evenodd" clip-rule="evenodd" d="M457.131 514.42C453.487 537.526 457.159 579.895 470.865 632.745C479.763 635.484 484.83 635.577 494.03 632.745C492.994 623.44 493.159 607.905 494.972 596.759C497.101 583.67 499.099 568.678 500.573 547.139C501.326 536.135 500.386 526.768 499.365 518.783C499.201 517.496 499.034 516.246 498.872 515.03C498.081 509.086 497.4 503.974 497.618 499.57C497.47 500.971 494.999 503.515 480.003 503.515C465.021 503.515 460.81 500.975 461.296 499.574C459.516 503.314 458.099 508.284 457.131 514.42Z" fill="#BABABA"/>
<path fill-rule="evenodd" clip-rule="evenodd" d="M529.013 596.759C530.826 607.905 530.991 623.44 529.955 632.745C539.005 635.874 543.99 635.985 553.12 632.745C566.825 579.895 570.498 537.526 566.853 514.42C566.007 509.051 564.816 504.575 563.339 501.034C563.128 500.528 562.911 500.041 562.689 499.574C563.174 500.975 558.962 503.515 543.982 503.515C528.986 503.515 526.514 500.971 526.367 499.57C526.585 503.974 525.904 509.086 525.112 515.03C524.95 516.245 524.784 517.496 524.619 518.783C523.599 526.768 522.659 536.135 523.412 547.139C524.886 568.678 526.883 583.67 529.013 596.759Z" fill="#BABABA"/>


</g>
<g id="back">
<path fill-rule="evenodd" clip-rule="evenodd" d="M411.293 157.648C425.128 157.648 439.462 180.66 444.9 192.166C445.625 198.876 448.851 208.097 451.975 216.056C453.236 219.269 454.48 222.277 455.537 224.83V224.83V224.83C457.179 228.798 458.369 231.674 458.46 232.516C458.755 235.243 460.819 282.136 460.229 287.862C459.498 288.774 458.677 291.043 457.816 294.403C458.46 296.854 474.847 301.483 512.011 301.491C549.175 301.483 565.562 296.854 566.206 294.403C565.344 291.043 564.523 288.774 563.792 287.862C563.203 282.136 565.266 235.243 565.561 232.516C565.652 231.674 566.841 228.801 568.484 224.83C569.541 222.276 570.785 219.269 572.047 216.056C575.17 208.097 578.396 198.876 579.122 192.166C584.4 180.66 598.51 157.648 612.728 157.648C612.233 152.559 610.942 148.197 609.107 144.452C589.821 151.173 565.592 159.437 512.011 159.447C458.429 159.437 434.201 151.173 414.914 144.452C413.08 148.197 411.788 152.559 411.293 157.648Z" fill="#D9D9D9"/>

</g>
<g id="upper_arms">
<path d="M44.6953 232.516C43.8109 203.072 44.6953 180.17 50.2964 167.356C49.9896 163.857 50.0066 160.628 50.2964 157.648C59.5961 160.611 78.7663 168.662 81.0492 177.169C83.3321 185.675 83.9029 190.711 83.9029 192.166C81.5445 204.435 72.1111 245.603 74.7643 260.325C55.3558 253.348 46.6314 238.879 44.6953 232.516Z" fill="#D9D9D9"/>
<path d="M257.332 232.516C258.217 203.072 257.332 180.17 251.731 167.356C252.038 163.857 252.021 160.628 251.731 157.648C242.431 160.611 223.261 168.662 220.978 177.169C218.695 185.675 218.125 190.711 218.125 192.166C220.483 204.435 229.916 245.603 227.263 260.325C246.672 253.348 255.396 238.879 257.332 232.516Z" fill="#D9D9D9"/>
<path fill-rule="evenodd" clip-rule="evenodd" d="M411.293 157.648C411.003 160.628 410.987 163.857 411.293 167.356C405.692 180.17 404.808 203.072 405.692 232.516C412.669 241.786 428.45 260.325 435.761 260.325C433.494 247.746 440.052 215.858 443.479 199.189L443.484 199.166C444.066 196.337 444.557 193.947 444.9 192.166C439.462 180.66 425.128 157.648 411.293 157.648Z" fill="#A3A3A3"/>
<path fill-rule="evenodd" clip-rule="evenodd" d="M580.541 199.186C583.969 215.854 590.527 247.745 588.26 260.325C604.5 255.418 612.728 242 618.329 232.516C619.213 203.072 618.329 180.17 612.728 167.356C613.035 163.857 613.018 160.628 612.728 157.648C598.51 157.648 584.4 180.66 579.121 192.166C579.465 193.951 579.957 196.348 580.541 199.186Z" fill="#A3A3A3"/>




</g>
<g id="forearms">
<path d="M35.8484 255.418C36.438 248.875 46.1662 239.06 44.6922 232.516C46.6283 238.879 55.3527 253.348 74.7612 260.325C60.9059 293.86 52.9465 317.579 51.7673 321.396C51.1777 323.304 51.4725 326.44 51.7673 329.541C35.1834 323.189 25.5975 324.058 22.8775 325.286C24.375 324.279 26.0098 323.051 27.889 321.396C34.0797 315.943 31.1317 260.325 35.8484 255.418Z" fill="#848484"/>
<path d="M266.173 255.418C265.583 248.875 255.855 239.06 257.329 232.516C255.393 238.879 246.669 253.348 227.26 260.325C241.115 293.86 249.075 317.579 250.254 321.396C250.844 323.304 250.549 326.44 250.254 329.541C266.838 323.189 276.424 324.058 279.144 325.286C277.646 324.279 276.011 323.051 274.132 321.396C267.942 315.943 270.89 260.325 266.173 255.418Z" fill="#848484"/>
<path fill-rule="evenodd" clip-rule="evenodd" d="M396.848 255.418C397.106 252.554 399.116 249.062 401.17 245.493C403.808 240.909 406.521 236.195 405.692 232.516C412.669 241.786 428.45 260.325 435.761 260.325C421.906 293.86 413.946 317.579 412.767 321.396C412.211 323.197 412.442 326.092 412.718 329.019C411.602 323.31 393.215 324.121 383.878 325.286C385.375 324.279 387.01 323.051 388.889 321.396C392.2 318.48 392.897 301.218 393.55 285.036C394.119 270.96 394.654 257.701 396.848 255.418Z" fill="#E7E7E7"/>
<path fill-rule="evenodd" clip-rule="evenodd" d="M618.329 232.516C617.5 236.195 620.213 240.909 622.851 245.493C624.905 249.062 626.915 252.554 627.173 255.418C629.367 257.701 629.903 270.96 630.471 285.036C631.124 301.218 631.822 318.48 635.132 321.396C637.011 323.051 638.646 324.279 640.144 325.286C630.807 324.121 612.419 323.31 611.303 329.019C611.579 326.092 611.81 323.197 611.254 321.396C610.075 317.579 602.115 293.86 588.26 260.325C604.5 255.418 612.728 242 618.329 232.516Z" fill="#E7E7E7"/>

</g>
<path id="back_of_head" fill-rule="evenodd" clip-rule="evenodd" d="M544.926 44.1243C546.633 34.2887 546.03 26.6974 544.042 20.8387C537.233 0.774658 514.178 0.503113 512.011 0.5C509.845 0.503113 486.79 0.774658 479.981 20.8387C477.992 26.6974 477.389 34.2887 479.096 44.1243L479.981 68.9342C479.273 77.2224 486.171 83.4749 489.709 85.5651C490.375 85.7791 491.303 86.176 492.454 86.6679C496.661 88.4666 503.835 91.5341 512.006 91.5605C520.182 91.5364 527.36 88.4671 531.569 86.6678C532.719 86.176 533.648 85.779 534.314 85.5651C537.851 83.4749 544.749 77.2224 544.042 68.9342L544.926 44.1243Z" fill="#D9D9D9" stroke="white" stroke-linejoin="round"/>
</g>
<g id="body_shape">
<path fill-rule="evenodd" clip-rule="evenodd" d="M495.885 653.476C496.865 650.428 497.317 649.02 494.972 638.2C494.593 636.833 494.277 634.967 494.03 632.745C484.83 635.577 479.763 635.484 470.865 632.745C472.279 638.198 472.928 641.742 460.842 643.65C449.934 646.104 441.054 652.102 443.449 655.646C445.337 658.44 461.118 668.348 469.096 670.914C475.876 673.095 492.156 674.186 493.564 668.46C494.268 665.598 494.268 664.234 494.268 662.803C494.268 661.372 494.268 659.872 494.972 656.737C495.284 655.347 495.606 654.345 495.885 653.476Z" stroke="white" stroke-linejoin="round"/>
<path fill-rule="evenodd" clip-rule="evenodd" d="M553.12 632.745C543.99 635.985 539.005 635.874 529.955 632.745C529.707 634.967 529.391 636.833 529.013 638.2C526.667 649.02 527.12 650.428 528.1 653.476C528.379 654.345 528.701 655.347 529.013 656.737C529.717 659.872 529.717 661.372 529.717 662.803C529.717 664.234 529.717 665.598 530.421 668.46C531.829 674.186 548.109 673.095 554.889 670.914C562.867 668.348 578.648 658.44 580.536 655.646C582.931 652.102 574.05 646.104 563.143 643.65C551.056 641.742 551.706 638.198 553.12 632.745Z" stroke="white" stroke-linejoin="round"/>
<path d="M98.9353 697.908C98.3457 697.09 96.5769 697.635 95.9873 690.819C95.4255 684.324 113.068 651.832 109.627 632.745C111.535 634.563 119.085 638.2 134.016 638.2C135.784 648.288 138.732 658.648 133.426 668.735C134.31 683.458 134.605 693.545 131.657 697.09C130.478 705.814 127.53 709.086 124.582 708.54C121.634 707.995 122.519 705.814 120.16 705.269C117.802 704.723 114.559 707.177 113.38 704.178C109.843 703.633 104.831 704.996 103.652 700.634C99.2301 700.361 99.5249 698.725 98.9353 697.908Z" stroke="white" stroke-linejoin="round"/>
<path d="M203.088 697.908C203.678 697.09 205.446 697.635 206.036 690.819C206.598 684.324 188.956 651.832 192.397 632.745C190.488 634.563 182.939 638.2 168.008 638.2C166.239 648.288 163.291 658.648 168.597 668.735C167.713 683.458 167.418 693.545 170.366 697.09C171.545 705.814 174.493 709.086 177.441 708.54C180.389 707.995 179.505 705.814 181.863 705.269C184.221 704.723 187.464 707.177 188.643 704.178C192.181 703.633 197.192 704.996 198.371 700.634C202.793 700.361 202.499 698.725 203.088 697.908Z" stroke="white" stroke-linejoin="round"/>
<path d="M134.016 596.759C130.774 616.116 132.248 628.113 134.016 638.2C119.086 638.2 111.536 634.563 109.628 632.745C109.458 631.803 109.236 630.893 108.959 630.021C95.2536 577.171 92.5311 537.526 96.1756 514.421C101.784 515.875 118.083 518.783 138.41 518.783C139.431 526.768 140.37 536.135 139.617 547.139C138.143 568.678 137.259 577.402 134.016 596.759Z" stroke="white" stroke-linejoin="round"/>
<path d="M168.009 596.759C171.251 616.116 169.777 628.113 168.009 638.2C182.939 638.2 190.489 634.563 192.397 632.745C192.567 631.803 192.789 630.893 193.066 630.021C206.771 577.171 209.494 537.526 205.849 514.421C200.241 515.875 183.942 518.783 163.615 518.783C162.594 526.768 161.655 536.135 162.408 547.139C163.882 568.678 164.766 577.402 168.009 596.759Z" stroke="white" stroke-linejoin="round"/>
<path d="M100.412 499.428C100.579 495.105 99.8474 489.908 98.7134 484.158C104.031 485.521 119.263 488.247 137.653 488.247C137.148 493.236 136.794 497.152 136.671 499.428C136.383 504.762 137.434 511.139 138.411 518.783C118.084 518.783 101.786 515.875 96.1772 514.421C97.1578 508.204 98.5992 503.185 100.412 499.428Z" stroke="white" stroke-linejoin="round"/>
<path d="M201.617 499.428C201.45 495.105 202.181 489.908 203.315 484.158C197.997 485.521 182.765 488.247 164.375 488.247C164.88 493.236 165.234 497.152 165.357 499.428C165.646 504.762 164.594 511.139 163.617 518.783C183.944 518.783 200.243 515.875 205.851 514.421C204.87 508.204 203.429 503.185 201.617 499.428Z" stroke="white" stroke-linejoin="round"/>
<path d="M148.076 366.106C147.631 382.327 146.816 402.75 145.513 416.001C143.647 434.985 139.566 469.333 137.652 488.247C119.262 488.247 104.03 485.521 98.7121 484.158C95.841 469.601 90.3874 451.503 90.3874 435.086C86.4692 415.517 86.6016 385.834 88.4772 358.2C99.4483 363.434 132.781 365.652 148.076 366.106Z" stroke="white" stroke-linejoin="round"/>
<path d="M153.95 366.106C154.394 382.327 155.21 402.75 156.512 416.001C158.378 434.985 162.459 469.333 164.374 488.247C182.764 488.247 197.996 485.521 203.314 484.158C206.185 469.601 211.638 451.503 211.638 435.086C215.557 415.517 215.424 385.834 213.549 358.2C202.577 363.434 169.245 365.652 153.95 366.106Z" stroke="white" stroke-linejoin="round"/>
<path d="M13.4457 350.838C9.02384 362.834 -1.29385 358.747 0.7697 353.567C2.15672 352.988 3.55774 350.468 4.99789 347.294C11.0875 343.75 52.5519 345.386 45.8766 360.653C41.2423 371.253 35.4561 376.924 33.4918 378.377C30.5438 380.558 28.1855 381.649 26.4167 382.467C24.648 383.285 24.648 381.649 22.8792 381.921C21.1105 382.194 19.0469 383.557 17.8677 383.557C16.6886 383.557 14.0354 383.557 11.0875 378.65C7.84477 370.743 12.5614 361.471 13.4457 350.838Z" stroke="white" stroke-linejoin="round"/>
<path d="M288.579 350.838C293.001 362.834 303.318 358.747 301.255 353.567C299.868 352.988 298.467 350.468 297.027 347.294C290.937 343.75 249.473 345.386 256.148 360.653C260.782 371.253 266.569 376.924 268.533 378.377C271.481 380.558 273.839 381.649 275.608 382.467C277.377 383.285 277.377 381.649 279.145 381.921C280.914 382.194 282.978 383.557 284.157 383.557C285.336 383.557 287.989 383.557 290.937 378.65C294.18 370.743 289.463 361.471 288.579 350.838Z" stroke="white" stroke-linejoin="round"/>
<path d="M13.4474 331.211C16.7323 328.743 19.4453 327.597 22.8808 325.286C25.6008 324.058 35.1867 323.189 51.7705 329.541L51.7743 329.58L51.7743 329.581C52.0678 332.668 52.3576 335.717 51.7705 337.482C50.8049 346.908 48.5301 354.588 45.8782 360.653C52.5535 345.386 11.0891 343.75 4.99948 347.294C7.63332 341.49 10.3981 333.502 13.4474 331.211Z" stroke="white" stroke-linejoin="round"/>
<path d="M288.58 331.211C285.296 328.743 282.583 327.597 279.147 325.286C276.427 324.058 266.841 323.189 250.257 329.541L250.253 329.58L250.253 329.581C249.96 332.668 249.67 335.717 250.257 337.482C251.223 346.908 253.498 354.588 256.15 360.653C249.474 345.386 290.939 343.75 297.028 347.294C294.394 341.49 291.63 333.502 288.58 331.211Z" stroke="white" stroke-linejoin="round"/>
<path d="M151.114 347.842H148.461C148.4 352.4 148.275 358.831 148.075 366.106C132.78 365.652 99.4474 363.434 88.4763 358.2C90.3095 331.192 93.8078 306.141 96.8171 294.403C97.4616 296.856 113.878 301.491 151.114 301.491M150.91 347.842H153.563C153.624 352.4 153.749 358.831 153.949 366.106C169.244 365.652 202.577 363.434 213.548 358.2C211.714 331.192 208.216 306.141 205.207 294.403C204.562 296.856 188.146 301.491 150.91 301.491" stroke="white" stroke-linejoin="round"/>
<path d="M151.116 224.608C125.41 224.608 100.313 218.906 90.9781 216.056C94.2002 224.265 97.3139 231.132 97.4636 232.516C97.7584 235.243 99.822 282.136 99.2324 287.862C98.5017 288.774 97.6804 291.043 96.8191 294.403C97.4636 296.856 113.88 301.491 151.116 301.491M150.912 224.608C176.618 224.608 201.715 218.906 211.05 216.056C207.828 224.265 204.714 231.132 204.564 232.516C204.27 235.243 202.206 282.136 202.796 287.862C203.526 288.774 204.348 291.043 205.209 294.403C204.564 296.856 188.148 301.491 150.912 301.491" stroke="white" stroke-linejoin="round"/>
<path d="M151.114 159.447C97.4613 159.447 73.2142 151.177 53.9153 144.452C52.0809 148.197 50.7897 152.56 50.2947 157.648C59.5944 160.611 78.7645 168.663 81.0475 177.169C83.3304 185.675 83.9011 190.711 83.9011 192.166C84.6267 198.876 87.8523 208.097 90.9761 216.056C100.311 218.906 125.408 224.608 151.114 224.608M150.91 159.447C204.563 159.447 228.81 151.177 248.109 144.452C249.943 148.197 251.234 152.56 251.729 157.648C242.43 160.611 223.259 168.663 220.977 177.169C218.694 185.675 218.123 190.711 218.123 192.166C217.397 198.876 214.172 208.097 211.048 216.056C201.713 218.906 176.616 224.608 150.91 224.608" stroke="white" stroke-linejoin="round"/>
<path d="M151.115 113.917C138.238 113.917 128.711 105.738 128.711 104.377C117.705 109.375 94.7509 119.699 90.9775 121.008C87.3685 122.26 63.3934 125.107 53.9167 144.452C73.2156 151.177 97.4627 159.447 151.115 159.447M150.912 113.917C163.788 113.917 173.316 105.738 173.316 104.377C184.322 109.375 207.276 119.699 211.049 121.008C214.658 122.26 238.634 125.107 248.11 144.452C228.811 151.177 204.564 159.447 150.912 159.447" stroke="white" stroke-linejoin="round"/>
<path d="M151.114 91.5607C140.662 91.5607 131.823 86.5648 128.71 85.5651V104.377C128.71 105.738 138.238 113.917 151.114 113.917M150.911 91.5607C161.363 91.5607 170.202 86.5648 173.315 85.5651V104.377C173.315 105.738 163.788 113.917 150.911 113.917" stroke="white" stroke-linejoin="round"/>
<path d="M151.115 0.500013L151.093 0.500007C149.503 0.499415 125.888 0.490615 118.983 20.8388C124.356 21.693 138.304 22.0383 151.115 22.0383M150.912 0.500013L150.934 0.500007C152.523 0.499415 176.138 0.490615 183.044 20.8388C177.671 21.693 163.722 22.0383 150.912 22.0383" stroke="white" stroke-linejoin="round"/>
<path d="M412.773 329.58C413.066 332.668 413.356 335.717 412.769 337.482C411.803 346.908 409.529 354.588 406.877 360.653C402.242 371.253 396.456 376.924 394.492 378.377C391.544 380.558 389.186 381.649 387.417 382.467C385.648 383.285 385.648 381.649 383.879 381.921C382.11 382.194 380.047 383.557 378.868 383.557C377.689 383.557 375.035 383.557 372.087 378.65C368.845 370.743 373.561 361.471 374.446 350.838C370.024 362.834 359.706 358.747 361.77 353.567C363.157 352.988 364.558 350.468 365.998 347.294C368.632 341.49 371.396 333.502 374.446 331.211C377.731 328.743 380.444 327.597 383.879 325.286C393.512 324.084 412.776 323.26 412.773 329.58ZM412.773 329.58L412.769 329.541M611.252 329.58C610.958 332.668 610.669 335.717 611.256 337.482C612.221 346.908 614.496 354.588 617.148 360.653C621.782 371.253 627.569 376.924 629.533 378.377C632.481 380.558 634.839 381.649 636.608 382.467C638.377 383.285 638.377 381.649 640.145 381.921C641.914 382.194 643.978 383.557 645.157 383.557C646.336 383.557 648.989 383.557 651.937 378.65C655.18 370.743 650.463 361.471 649.579 350.838C654.001 362.834 664.318 358.747 662.255 353.567C660.868 352.988 659.467 350.468 658.027 347.294C655.393 341.49 652.628 333.502 649.579 331.211C646.294 328.743 643.581 327.597 640.145 325.286C630.513 324.084 611.249 323.26 611.252 329.58ZM611.252 329.58L611.256 329.541" stroke="white" stroke-linejoin="round"/>
<path d="M509.073 366.106C508.628 382.327 507.812 402.75 506.51 416.001C504.644 434.985 500.563 469.333 498.648 488.247C498.143 493.236 497.789 497.152 497.666 499.428C497.669 500.79 493.963 503.515 479.12 503.515C464.276 503.515 461.126 500.79 461.407 499.428C461.574 495.105 460.843 489.908 459.709 484.158C456.837 469.601 451.384 451.503 451.384 435.086C447.466 415.517 447.598 385.834 449.474 358.2C460.445 363.434 493.777 365.652 509.073 366.106Z" stroke="white" stroke-linejoin="round"/>
<path d="M514.946 366.106C515.391 382.327 516.206 402.75 517.509 416.001C519.375 434.985 523.456 469.333 525.37 488.247C525.875 493.236 526.229 497.152 526.352 499.428C526.35 500.79 528.456 503.515 543.974 503.515C559.492 503.515 563.455 500.79 562.612 499.428C562.445 495.105 563.176 489.908 564.31 484.158C567.181 469.601 572.635 451.503 572.635 435.086C576.553 415.517 576.421 385.834 574.545 358.2C563.574 363.434 530.241 365.652 514.946 366.106Z" stroke="white" stroke-linejoin="round"/>
<path d="M512.11 301.491C474.874 301.491 458.458 296.856 457.813 294.403C454.804 306.141 451.306 331.192 449.473 358.2C460.444 363.434 493.777 365.652 509.072 366.106C510.5 360 510.939 355.059 511 350.5L511.907 334.753L513 350.5C513 355.5 514 360 514.945 366.106C530.24 365.652 563.573 363.434 574.544 358.2C572.711 331.192 569.213 306.141 566.203 294.403C565.559 296.856 549.143 301.491 511.907 301.491" stroke="white" stroke-linejoin="round"/>
<path d="M512.111 113.917C499.235 113.917 489.707 105.738 489.707 104.377C478.702 109.375 455.747 119.699 451.974 121.008C448.365 122.26 424.39 125.107 414.913 144.452C434.212 151.177 458.459 159.447 512.111 159.447M511.908 113.917C524.785 113.917 534.312 105.738 534.312 104.377C545.318 109.375 568.272 119.699 572.046 121.008C575.655 122.26 599.63 125.107 609.107 144.452C589.808 151.177 565.561 159.447 511.908 159.447" stroke="white" stroke-linejoin="round"/>
<path d="M512.111 91.5607C501.658 91.5607 492.82 86.5648 489.707 85.5651V104.377C489.707 105.738 499.234 113.917 512.111 113.917M511.908 91.5607C522.36 91.5607 531.199 86.5648 534.312 85.5651V104.377C534.312 105.738 524.784 113.917 511.908 113.917" stroke="white" stroke-linejoin="round"/>
<path fill-rule="evenodd" clip-rule="evenodd" d="M457.131 514.42C453.487 537.526 457.159 579.895 470.865 632.745C479.763 635.484 484.83 635.577 494.03 632.745C492.994 623.44 493.159 607.905 494.972 596.759C497.101 583.67 499.099 568.678 500.573 547.139C501.326 536.135 500.386 526.768 499.365 518.783C499.201 517.496 499.034 516.246 498.872 515.03C498.081 509.086 497.4 503.974 497.618 499.57C497.47 500.971 494.999 503.515 480.003 503.515C465.021 503.515 460.81 500.975 461.296 499.574C459.516 503.314 458.099 508.284 457.131 514.42Z" stroke="white" stroke-linejoin="round"/>
<path fill-rule="evenodd" clip-rule="evenodd" d="M529.013 596.759C530.826 607.905 530.991 623.44 529.955 632.745C539.005 635.874 543.99 635.985 553.12 632.745C566.825 579.895 570.498 537.526 566.853 514.42C566.007 509.051 564.816 504.575 563.339 501.034C563.128 500.528 562.911 500.041 562.689 499.574C563.174 500.975 558.962 503.515 543.982 503.515C528.986 503.515 526.514 500.971 526.367 499.57C526.585 503.974 525.904 509.086 525.112 515.03C524.95 516.245 524.784 517.496 524.619 518.783C523.599 526.768 522.659 536.135 523.412 547.139C524.886 568.678 526.883 583.67 529.013 596.759Z" stroke="white" stroke-linejoin="round"/>
<path d="M455.537 224.83C454.48 222.277 453.236 219.269 451.975 216.056C448.851 208.097 445.625 198.876 444.9 192.166C439.462 180.66 425.128 157.648 411.293 157.648C411.788 152.559 413.08 148.197 414.914 144.452C434.201 151.173 458.429 159.437 512.011 159.447C565.592 159.437 589.821 151.173 609.107 144.452C610.942 148.197 612.233 152.559 612.728 157.648C598.51 157.648 584.4 180.66 579.122 192.166C578.396 198.876 575.17 208.097 572.047 216.056C570.785 219.269 569.541 222.276 568.484 224.83C566.841 228.801 565.652 231.674 565.561 232.516C565.266 235.243 563.203 282.136 563.792 287.862C564.523 288.774 565.344 291.043 566.206 294.403C565.562 296.854 549.175 301.483 512.011 301.491C474.847 301.483 458.46 296.854 457.816 294.403C458.677 291.043 459.498 288.774 460.229 287.862C460.819 282.136 458.755 235.243 458.46 232.516C458.369 231.674 457.179 228.798 455.537 224.83ZM455.537 224.83V224.83ZM455.537 224.83V224.83Z" stroke="white" stroke-linejoin="round"/>
<path d="M44.6953 232.516C43.8109 203.072 44.6953 180.17 50.2964 167.356C49.9896 163.857 50.0066 160.628 50.2964 157.648C59.5961 160.611 78.7663 168.662 81.0492 177.169C83.3321 185.675 83.9029 190.711 83.9029 192.166C81.5445 204.435 72.1111 245.603 74.7643 260.325C55.3558 253.348 46.6314 238.879 44.6953 232.516Z" stroke="white" stroke-linejoin="round"/>
<path d="M257.332 232.516C258.217 203.072 257.332 180.17 251.731 167.356C252.038 163.857 252.021 160.628 251.731 157.648C242.431 160.611 223.261 168.662 220.978 177.169C218.695 185.675 218.125 190.711 218.125 192.166C220.483 204.435 229.916 245.603 227.263 260.325C246.672 253.348 255.396 238.879 257.332 232.516Z" stroke="white" stroke-linejoin="round"/>
<path fill-rule="evenodd" clip-rule="evenodd" d="M411.293 157.648C411.003 160.628 410.987 163.857 411.293 167.356C405.692 180.17 404.808 203.072 405.692 232.516C412.669 241.786 428.45 260.325 435.761 260.325C433.494 247.746 440.052 215.858 443.479 199.189L443.484 199.166C444.066 196.337 444.557 193.947 444.9 192.166C439.462 180.66 425.128 157.648 411.293 157.648Z" stroke="white" stroke-linejoin="round"/>
<path fill-rule="evenodd" clip-rule="evenodd" d="M580.541 199.186C583.969 215.854 590.527 247.745 588.26 260.325C604.5 255.418 612.728 242 618.329 232.516C619.213 203.072 618.329 180.17 612.728 167.356C613.035 163.857 613.018 160.628 612.728 157.648C598.51 157.648 584.4 180.66 579.121 192.166C579.465 193.951 579.957 196.348 580.541 199.186Z" stroke="white" stroke-linejoin="round"/>
<path d="M51.771 329.58L51.7673 329.541M51.7673 329.541C51.4725 326.44 51.1777 323.304 51.7673 321.396C52.9465 317.579 60.9059 293.86 74.7612 260.325C55.3527 253.348 46.6283 238.879 44.6922 232.516C46.1662 239.06 36.438 248.875 35.8484 255.418C31.1317 260.325 34.0797 315.943 27.889 321.396C26.0098 323.051 24.375 324.279 22.8775 325.286C25.5975 324.058 35.1834 323.189 51.7673 329.541ZM250.25 329.58L250.254 329.541M250.254 329.541C250.549 326.44 250.844 323.304 250.254 321.396C249.075 317.579 241.115 293.86 227.26 260.325C246.669 253.348 255.393 238.879 257.329 232.516C255.855 239.06 265.583 248.875 266.173 255.418C270.89 260.325 267.942 315.943 274.132 321.396C276.011 323.051 277.646 324.279 279.144 325.286C276.424 324.058 266.838 323.189 250.254 329.541ZM396.848 255.418C397.106 252.554 399.116 249.062 401.17 245.493C403.808 240.909 406.521 236.195 405.692 232.516C412.669 241.786 428.45 260.325 435.761 260.325C421.906 293.86 413.946 317.579 412.767 321.396C412.211 323.197 412.442 326.092 412.718 329.019C411.602 323.31 393.215 324.121 383.878 325.286C385.375 324.279 387.01 323.051 388.889 321.396C392.2 318.48 392.897 301.218 393.55 285.036C394.119 270.96 394.654 257.701 396.848 255.418ZM618.329 232.516C617.5 236.195 620.213 240.909 622.851 245.493C624.905 249.062 626.915 252.554 627.173 255.418C629.367 257.701 629.903 270.96 630.471 285.036C631.124 301.218 631.822 318.48 635.132 321.396C637.011 323.051 638.646 324.279 640.144 325.286C630.807 324.121 612.419 323.31 611.303 329.019C611.579 326.092 611.81 323.197 611.254 321.396C610.075 317.579 602.115 293.86 588.26 260.325C604.5 255.418 612.728 242 618.329 232.516Z" stroke="white" stroke-linejoin="round"/>
<path id="Vector 138" d="M118.5 48.5C118.992 44.789 120.962 40.2532 123.917 37.7792C123.917 36.1298 125.523 29.1716 127 27.4707C130.152 23.8421 131.796 22.935 135.242 22.5226C138.689 22.1103 149.03 27.4707 151 27.4707C153.462 27.4707 162.692 21.8209 167 22.5226C169.447 22.9213 172.162 24.9614 174 27.4707C176.669 31.1133 177.986 35.7446 178.083 37.7791C180.217 40.2532 183.5 43.1395 183.5 48.5" stroke="white"/>
<path id="Vector 139" d="M82.7501 172.5C83.8709 179.596 89.4753 197.709 99.5632 201.07C111.893 205.178 125.343 203.311 133.75 201.07" stroke="white"/>
<path id="Vector 140" d="M219.5 173.5C218.379 180.596 212.775 198.709 202.687 202.07C190.357 206.178 176.907 204.311 168.5 202.07" stroke="white"/>
<path id="Ellipse 5" d="M106 189C107.215 189 108 189.77 108 190.5C108 191.23 107.215 192 106 192C104.786 192 104 191.23 104 190.5C104 189.77 104.786 189 106 189Z" stroke="white"/>
<path id="Ellipse 6" d="M196.25 190C195.036 190 194.25 190.77 194.25 191.5C194.25 192.23 195.036 193 196.25 193C197.465 193 198.25 192.23 198.25 191.5C198.25 190.77 197.465 190 196.25 190Z" stroke="white"/>
<path id="Ellipse 7" d="M151.5 288C152.243 288 152.894 288.202 153.344 288.502C153.797 288.804 154 289.167 154 289.5C154 289.833 153.797 290.196 153.344 290.498C152.894 290.798 152.243 291 151.5 291C150.757 291 150.106 290.798 149.656 290.498C149.203 290.196 149 289.833 149 289.5C149 289.167 149.203 288.804 149.656 288.502C150.106 288.202 150.757 288 151.5 288Z" fill="#D9D9D9" stroke="white"/>
<path id="Vector 141" d="M502.5 159.5C502.322 171.318 500.473 196.264 494.5 201.5" stroke="white"/>
<path id="Vector 142" d="M522.5 159.5C522.678 171.318 524.527 196.264 530.5 201.5" stroke="white"/>
<path id="Vector 143" d="M513 230L512.5 272.5" stroke="white"/>
<path id="16" d="M544.926 44.1243C558.487 43.579 554.065 63.7541 544.042 68.9342" stroke="white" stroke-linejoin="round"/>
<path id="16_2" d="M479.096 44.1243C465.536 43.579 469.958 63.7541 479.981 68.9342" stroke="white" stroke-linejoin="round"/>
<path id="vector2" d="M118.096 44.1244C104.536 43.5792 108.958 63.7543 118.981 68.9344" stroke="white" stroke-linejoin="round"/>
<path id="vector" d="M183.926 44.1244C197.487 43.5792 193.065 63.7543 183.042 68.9344" stroke="white" stroke-linejoin="round"/>
</g>
</g>
</svg>
