<svg xmlns="http://www.w3.org/2000/svg">
  <!-- Based on Lucide icons (ISC License), with motion-oriented grouping. -->
  <symbol id="comfort" viewBox="0 0 24 24">
    <g class="comfort-heart">
      <path d="M19 14c1.49-1.46 3-3.21 3-5.5A5.5 5.5 0 0 0 16.5 3c-1.76 0-3 .5-4.5 2-1.5-1.5-2.74-2-4.5-2A5.5 5.5 0 0 0 2 8.5c0 2.3 1.5 4.05 3 5.5l7 7Z"/>
    </g>
    <g class="comfort-clasp">
      <path d="M12 5 9.04 7.96a2.17 2.17 0 0 0 0 3.08c.82.82 2.13.85 3 .07l2.07-1.9a2.82 2.82 0 0 1 3.79 0l2.96 2.66"/>
      <path d="m18 15-2-2M15 18l-2-2"/>
    </g>
  </symbol>

  <symbol id="calming" viewBox="0 0 24 24">
    <path class="calm-wave calm-wave-1" d="M2 6c.6.5 1.2 1 2.5 1C7 7 7 5 9.5 5c2.6 0 2.4 2 5 2 2.5 0 2.5-2 5-2 1.3 0 1.9.5 2.5 1"/>
    <path class="calm-wave calm-wave-2" d="M2 12c.6.5 1.2 1 2.5 1 2.5 0 2.5-2 5-2 2.6 0 2.4 2 5 2 2.5 0 2.5-2 5-2 1.3 0 1.9.5 2.5 1"/>
    <path class="calm-wave calm-wave-3" d="M2 18c.6.5 1.2 1 2.5 1 2.5 0 2.5-2 5-2 2.6 0 2.4 2 5 2 2.5 0 2.5-2 5-2 1.3 0 1.9.5 2.5 1"/>
  </symbol>

  <symbol id="affection" viewBox="0 0 24 24">
    <path class="affection-heart" d="M19 14c1.49-1.46 3-3.21 3-5.5A5.5 5.5 0 0 0 16.5 3c-1.76 0-3 .5-4.5 2-1.5-1.5-2.74-2-4.5-2A5.5 5.5 0 0 0 2 8.5c0 2.3 1.5 4.05 3 5.5l7 7Z"/>
  </symbol>

  <symbol id="salutation" viewBox="0 0 24 24">
    <g class="salutation-hand">
      <path d="M18 11V6a2 2 0 0 0-4 0"/>
      <path d="M14 10V4a2 2 0 0 0-4 0v2"/>
      <path d="M10 10.5V6a2 2 0 0 0-4 0v8"/>
      <path d="M18 8a2 2 0 1 1 4 0v6a8 8 0 0 1-8 8h-2c-2.8 0-4.5-.86-5.99-2.34l-3.6-3.6a2 2 0 0 1 2.83-2.82L7 15"/>
    </g>
    <path class="salutation-lines" d="M2.5 5.5 1 4M5.5 3.5 5 1.5"/>
  </symbol>

  <symbol id="appreciation" viewBox="0 0 24 24">
    <g class="appreciation-thumb">
      <path d="M7 10v12"/>
      <path d="M15 5.88 14 10h5.83a2 2 0 0 1 1.92 2.56l-2.33 8A2 2 0 0 1 17.5 22H4a2 2 0 0 1-2-2v-8a2 2 0 0 1 2-2h2.76a2 2 0 0 0 1.79-1.11L12 2a3.13 3.13 0 0 1 3 3.88Z"/>
    </g>
  </symbol>

  <symbol id="gratitude" viewBox="0 0 24 24">
    <g class="gratitude-hands">
      <path d="M11 14h2a2 2 0 1 0 0-4h-3c-.6 0-1.1.2-1.4.6L3 16"/>
      <path d="m7 20 1.6-1.4c.3-.4.8-.6 1.4-.6h4c1.1 0 2.1-.4 2.8-1.2l4.6-4.4a2 2 0 0 0-2.75-2.91l-4.2 3.9"/>
      <path d="m2 15 6 6"/>
    </g>
    <path class="gratitude-heart" d="M19.5 8.5c.7-.7 1.5-1.6 1.5-2.7A2.73 2.73 0 0 0 16 4a2.78 2.78 0 0 0-5 1.8c0 1.2.8 2 1.5 2.8L16 12Z"/>
  </symbol>

  <symbol id="encouragement" viewBox="0 0 24 24">
    <polyline class="encouragement-path" points="22 7 13.5 15.5 8.5 10.5 2 17"/>
    <polyline class="encouragement-arrow" points="16 7 22 7 22 13"/>
  </symbol>

  <symbol id="presence" viewBox="0 0 24 24">
    <path class="presence-pin" d="M20 10c0 4.993-5.539 10.193-7.399 11.799a1 1 0 0 1-1.202 0C9.539 20.193 4 14.993 4 10a8 8 0 0 1 16 0"/>
    <circle class="presence-dot" cx="12" cy="10" r="3"/>
  </symbol>

  <symbol id="playful" viewBox="0 0 24 24">
    <g class="playful-cone">
      <path d="M5.8 11.3 2 22l10.7-3.79"/>
      <path d="M11 13c1.93 1.93 2.83 4.17 2 5-.83.83-3.07-.07-5-2-1.93-1.93-2.83-4.17-2-5 .83-.83 3.07.07 5 2Z"/>
    </g>
    <g class="playful-confetti">
      <path d="M4 3h.01M22 8h.01M15 2h.01M22 20h.01"/>
      <path d="m22 2-2.24.75a2.9 2.9 0 0 0-1.96 3.12c.1.86-.57 1.63-1.45 1.63h-.38c-.86 0-1.6.6-1.76 1.44L14 10"/>
      <path d="m22 13-.82-.33c-.86-.34-1.82.2-1.98 1.11-.11.7-.72 1.22-1.43 1.22H17"/>
      <path d="m11 2 .33.82c.34.86-.2 1.82-1.11 1.98C9.52 4.9 9 5.52 9 6.23V7"/>
    </g>
  </symbol>

  <symbol id="attention_getting" viewBox="0 0 24 24">
    <path class="attention-clapper" d="M10.268 21a2 2 0 0 0 3.464 0"/>
    <g class="attention-bell">
      <path d="M3.262 15.326A1 1 0 0 0 4 17h16a1 1 0 0 0 .74-1.673C19.41 13.956 18 12.499 18 8A6 6 0 0 0 6 8c0 4.499-1.411 5.956-2.738 7.326"/>
    </g>
    <path class="attention-ring-lines" d="M22 8c0-2.3-.8-4.3-2-6M4 2C2.8 3.7 2 5.7 2 8"/>
  </symbol>

  <symbol id="guidance" viewBox="0 0 24 24">
    <path class="guidance-post" d="M12 13v8M12 3v3"/>
    <path class="guidance-sign" d="M18 6a2 2 0 0 1 1.387.56l2.307 2.22a1 1 0 0 1 0 1.44l-2.307 2.22A2 2 0 0 1 18 13H6a2 2 0 0 1-1.387-.56l-2.306-2.22a1 1 0 0 1 0-1.44l2.306-2.22A2 2 0 0 1 6 6Z"/>
  </symbol>

  <symbol id="request" viewBox="0 0 24 24">
    <path class="request-bubble" d="M7.9 20A9 9 0 1 0 4 16.1L2 22Z"/>
    <path class="request-question" d="M9.09 9a3 3 0 0 1 5.83 1c0 2-3 3-3 3M12 17h.01"/>
  </symbol>

  <symbol id="apology" viewBox="0 0 24 24">
    <path class="apology-head" d="M9 14 4 9l5-5"/>
    <path class="apology-path" d="M4 9h10.5a5.5 5.5 0 0 1 5.5 5.5 5.5 5.5 0 0 1-5.5 5.5H11"/>
  </symbol>

  <symbol id="refusal" viewBox="0 0 24 24">
    <circle class="refusal-ring" cx="12" cy="12" r="10"/>
    <path class="refusal-slash" d="m4.9 4.9 14.2 14.2"/>
  </symbol>
</svg>
